<svg width="24" height="24" viewBox="0 0 24 24" fill="none" xmlns="http://www.w3.org/2000/svg">
<path d="M11.2498 8.99963C11.2498 9.41385 11.5856 9.74963 11.9998 9.74963C12.414 9.74963 12.7498 9.41385 12.7498 8.99963H11.2498ZM14.396 6.44449C14.6416 6.77801 15.1111 6.84926 15.4446 6.60363C15.7782 6.358 15.8494 5.8885 15.6038 5.55498L14.396 6.44449ZM8.39597 5.55502C8.15035 5.88855 8.22161 6.35804 8.55514 6.60366C8.88867 6.84929 9.35817 6.77802 9.60379 6.44449L8.39597 5.55502ZM12.7498 8.99963V2.99963H11.2498V8.99963H12.7498ZM11.9998 3.74963C11.8898 3.74963 11.8658 3.70897 11.9685 3.77085C12.0505 3.82032 12.1637 3.90517 12.3055 4.03043C12.5873 4.27944 12.9125 4.62575 13.23 4.99139C13.5442 5.3533 13.8364 5.71741 14.051 5.99239C14.158 6.12948 14.245 6.2435 14.3049 6.32285C14.3349 6.3625 14.358 6.39344 14.3735 6.41421C14.3812 6.4246 14.3871 6.43243 14.3908 6.43754C14.3927 6.44009 14.3941 6.44197 14.395 6.44313C14.3954 6.44371 14.3957 6.44412 14.3959 6.44435C14.396 6.44446 14.396 6.44453 14.396 6.44455C14.396 6.44456 14.396 6.44455 14.396 6.44455C14.396 6.44453 14.396 6.44449 14.9999 5.99973C15.6038 5.55498 15.6037 5.55491 15.6037 5.55484C15.6036 5.5548 15.6036 5.55472 15.6035 5.55464C15.6034 5.55448 15.6033 5.55427 15.6031 5.55402C15.6027 5.55352 15.6022 5.55284 15.6016 5.55198C15.6003 5.55026 15.5985 5.54783 15.5962 5.54471C15.5916 5.53846 15.5849 5.52945 15.5762 5.51786C15.559 5.49469 15.5339 5.46117 15.5019 5.41879C15.4379 5.33407 15.3461 5.21371 15.2336 5.06955C15.0092 4.78201 14.6996 4.39609 14.3626 4.00798C14.0289 3.62359 13.6535 3.21988 13.2987 2.90637C13.1222 2.75037 12.933 2.60084 12.7429 2.48624C12.5734 2.38405 12.3075 2.24964 11.9998 2.24963L11.9998 3.74963ZM8.99988 5.99975C9.60379 6.44449 9.60376 6.44453 9.60374 6.44456C9.60374 6.44455 9.60373 6.44457 9.60374 6.44456C9.60376 6.44453 9.60381 6.44447 9.60389 6.44435C9.60406 6.44413 9.60436 6.44372 9.60479 6.44314C9.60565 6.44197 9.60703 6.4401 9.60892 6.43755C9.61271 6.43244 9.61852 6.4246 9.62626 6.41422C9.64174 6.39345 9.66489 6.36251 9.69484 6.32285C9.75477 6.24351 9.84174 6.12948 9.94872 5.99239C10.1633 5.71741 10.4555 5.3533 10.7697 4.99138C11.0872 4.62574 11.4124 4.27943 11.6942 4.03042C11.8359 3.90516 11.9491 3.82031 12.0312 3.77085C12.1338 3.70897 12.1099 3.74963 11.9998 3.74963L11.9998 2.24963C11.6921 2.24963 11.4262 2.38405 11.2567 2.48624C11.0666 2.60084 10.8775 2.75038 10.7009 2.90638C10.3461 3.21989 9.97077 3.62361 9.63705 4.008C9.30009 4.39612 8.99056 4.78204 8.76617 5.06958C8.65367 5.21375 8.56186 5.33411 8.49787 5.41883C8.46586 5.46121 8.44078 5.49473 8.42351 5.51791C8.41487 5.5295 8.40818 5.53851 8.40356 5.54475C8.40124 5.54787 8.39944 5.55031 8.39818 5.55202C8.39754 5.55288 8.39704 5.55356 8.39667 5.55406C8.39649 5.55431 8.39633 5.55452 8.39622 5.55468C8.39616 5.55476 8.3961 5.55484 8.39607 5.55488C8.39601 5.55495 8.39597 5.55502 8.99988 5.99975Z" fill="#141B34"/>
<path d="M8.99988 12.7498C9.41409 12.7498 9.74988 12.414 9.74988 11.9998C9.74988 11.5856 9.41409 11.2498 8.99988 11.2498V12.7498ZM5.55506 15.6039C5.88857 15.8495 6.35808 15.7783 6.60373 15.4448C6.84938 15.1113 6.77815 14.6418 6.44465 14.3961L5.55506 15.6039ZM6.44461 9.60392C6.77814 9.3583 6.84941 8.88881 6.6038 8.55527C6.35818 8.22174 5.88869 8.15047 5.55515 8.39608L6.44461 9.60392ZM8.99988 11.2498H2.99988V12.7498H8.99988V11.2498ZM2.24988 11.9998C2.24988 12.3075 2.38428 12.5734 2.48647 12.7429C2.60106 12.933 2.75058 13.1221 2.90657 13.2987C3.22007 13.6535 3.62376 14.0289 4.00813 14.3626C4.39623 14.6996 4.78213 15.0092 5.06966 15.2336C5.21382 15.3461 5.33417 15.438 5.41889 15.502C5.46127 15.534 5.49478 15.5591 5.51796 15.5763C5.52955 15.585 5.53855 15.5917 5.5448 15.5963C5.54792 15.5986 5.55035 15.6004 5.55207 15.6017C5.55293 15.6023 5.55361 15.6028 5.55411 15.6032C5.55436 15.6034 5.55457 15.6035 5.55472 15.6036C5.5548 15.6037 5.55489 15.6037 5.55493 15.6038C5.555 15.6038 5.55506 15.6039 5.99985 15C6.44465 14.3961 6.44468 14.3962 6.44471 14.3962C6.44471 14.3962 6.44472 14.3962 6.44471 14.3962C6.44469 14.3962 6.44462 14.3961 6.44451 14.396C6.44428 14.3959 6.44387 14.3956 6.44329 14.3951C6.44212 14.3943 6.44025 14.3929 6.4377 14.391C6.43259 14.3872 6.42475 14.3814 6.41437 14.3737C6.3936 14.3582 6.36266 14.335 6.32301 14.3051C6.24367 14.2451 6.12965 14.1581 5.99256 14.0511C5.7176 13.8365 5.3535 13.5443 4.9916 13.23C4.62598 12.9126 4.27968 12.5873 4.03068 12.3055C3.90542 12.1637 3.82058 12.0505 3.77111 11.9685C3.70922 11.8658 3.74988 11.8897 3.74988 11.9998L2.24988 11.9998ZM5.99988 9C5.55515 8.39608 5.55509 8.39613 5.55502 8.39618C5.55498 8.39621 5.55489 8.39627 5.55481 8.39633C5.55465 8.39645 5.55445 8.3966 5.5542 8.39678C5.5537 8.39715 5.55302 8.39765 5.55216 8.39829C5.55044 8.39956 5.54801 8.40136 5.54489 8.40367C5.53864 8.40829 5.52963 8.41498 5.51804 8.42362C5.49486 8.44089 5.46135 8.46597 5.41897 8.49798C5.33425 8.56196 5.2139 8.65376 5.06973 8.76626C4.7822 8.99063 4.3963 9.30014 4.00819 9.63708C3.62382 9.97078 3.22011 10.3461 2.90661 10.7009C2.75061 10.8775 2.60108 11.0666 2.48648 11.2567C2.38429 11.4262 2.24988 11.6921 2.24988 11.9998L3.74988 11.9998C3.74988 12.1098 3.70921 12.1338 3.77109 12.0311C3.82055 11.9491 3.90539 11.8359 4.03064 11.6942C4.27964 11.4124 4.62593 11.0872 4.99156 10.7698C5.35346 10.4556 5.71755 10.1634 5.99252 9.94883C6.12961 9.84185 6.24363 9.75489 6.32297 9.69497C6.36262 9.66502 6.39356 9.64187 6.41433 9.62639C6.42471 9.61865 6.43255 9.61284 6.43766 9.60905C6.44021 9.60716 6.44208 9.60578 6.44325 9.60492C6.44383 9.60449 6.44424 9.60419 6.44446 9.60402C6.44458 9.60394 6.44465 9.60389 6.44467 9.60387C6.44468 9.60386 6.44467 9.60387 6.44467 9.60387C6.44464 9.60389 6.44461 9.60392 5.99988 9Z" fill="#141B34"/>
<path d="M14.9999 11.2498C14.5857 11.2498 14.2499 11.5855 14.2499 11.9998C14.2499 12.414 14.5857 12.7498 14.9999 12.7498V11.2498ZM18.4447 8.39598C18.1112 8.15035 17.6417 8.2216 17.3961 8.55512C17.1505 8.88865 17.2217 9.35815 17.5552 9.60378L18.4447 8.39598ZM17.5552 14.396C17.2217 14.6416 17.1504 15.1111 17.3961 15.4447C17.6417 15.7782 18.1112 15.8494 18.4447 15.6038L17.5552 14.396ZM20.9999 11.2498H14.9999V12.7498H20.9999V11.2498ZM21.7499 11.9998C21.7499 11.6921 21.6155 11.4262 21.5133 11.2567C21.3987 11.0666 21.2492 10.8775 21.0932 10.7009C20.7797 10.3461 20.376 9.97075 19.9916 9.63703C19.6035 9.30008 19.2177 8.99055 18.9301 8.76617C18.786 8.65367 18.6656 8.56186 18.5809 8.49788C18.5385 8.46587 18.505 8.44079 18.4818 8.42352C18.4703 8.41488 18.4612 8.40819 18.455 8.40357C18.4519 8.40125 18.4494 8.39946 18.4477 8.39819C18.4469 8.39755 18.4462 8.39705 18.4457 8.39668C18.4454 8.3965 18.4452 8.39635 18.4451 8.39623C18.445 8.39617 18.4449 8.39611 18.4449 8.39608C18.4448 8.39602 18.4447 8.39598 18 8.99988C17.5552 9.60378 17.5552 9.60375 17.5552 9.60373C17.5552 9.60373 17.5552 9.60372 17.5552 9.60373C17.5552 9.60375 17.5553 9.6038 17.5554 9.60388C17.5556 9.60405 17.556 9.60435 17.5566 9.60478C17.5578 9.60564 17.5596 9.60702 17.5622 9.60891C17.5673 9.6127 17.5751 9.61851 17.5855 9.62625C17.6063 9.64173 17.6372 9.66488 17.6769 9.69483C17.7562 9.75476 17.8702 9.84172 18.0073 9.9487C18.2823 10.1633 18.6463 10.4555 19.0082 10.7697C19.3738 11.0871 19.7201 11.4123 19.9691 11.6941C20.0944 11.8359 20.1792 11.949 20.2287 12.0311C20.2905 12.1337 20.2499 12.1098 20.2499 11.9998L21.7499 11.9998ZM18 14.9999C18.4447 15.6038 18.4448 15.6037 18.4449 15.6037C18.4449 15.6036 18.445 15.6036 18.4451 15.6035C18.4452 15.6034 18.4454 15.6032 18.4457 15.6031C18.4462 15.6027 18.4469 15.6022 18.4477 15.6015C18.4495 15.6003 18.4519 15.5985 18.455 15.5962C18.4613 15.5915 18.4703 15.5849 18.4819 15.5762C18.505 15.5589 18.5385 15.5339 18.5809 15.5018C18.6656 15.4379 18.786 15.346 18.9301 15.2335C19.2177 15.0091 19.6036 14.6996 19.9916 14.3626C20.376 14.0288 20.7797 13.6535 21.0932 13.2986C21.2492 13.1221 21.3987 12.9329 21.5133 12.7428C21.6155 12.5733 21.7499 12.3074 21.7499 11.9998L20.2499 11.9998C20.2499 11.8897 20.2905 11.8658 20.2287 11.9684C20.1792 12.0505 20.0943 12.1637 19.9691 12.3055C19.7201 12.5873 19.3738 12.9125 19.0082 13.23C18.6463 13.5442 18.2822 13.8364 18.0073 14.051C17.8702 14.158 17.7562 14.245 17.6768 14.3049C17.6372 14.3349 17.6062 14.358 17.5855 14.3735C17.5751 14.3813 17.5672 14.3871 17.5621 14.3909C17.5596 14.3928 17.5577 14.3941 17.5565 14.395C17.556 14.3954 17.5555 14.3957 17.5553 14.3959C17.5552 14.396 17.5551 14.396 17.5551 14.396C17.5551 14.3961 17.5551 14.396 17.5551 14.396C17.5551 14.396 17.5552 14.396 18 14.9999Z" fill="#141B34"/>
<path d="M12.7498 14.9996C12.7498 14.5854 12.414 14.2496 11.9998 14.2496C11.5856 14.2496 11.2498 14.5854 11.2498 14.9996H12.7498ZM9.60377 17.555C9.35813 17.2215 8.88863 17.1502 8.55511 17.3959C8.22159 17.6415 8.15035 18.111 8.39599 18.4445L9.60377 17.555ZM15.6038 18.4445C15.8494 18.111 15.7782 17.6415 15.4447 17.3959C15.1111 17.1502 14.6416 17.2215 14.396 17.555L15.6038 18.4445ZM12.7498 20.9996V14.9996H11.2498V20.9996H12.7498ZM11.9998 20.2496C12.1099 20.2496 12.1338 20.2903 12.0311 20.2284C11.9491 20.1789 11.8359 20.0941 11.6942 19.9689C11.4124 19.7199 11.0872 19.3736 10.7697 19.008C10.4555 18.6461 10.1633 18.282 9.9487 18.0071C9.84172 17.87 9.75475 17.756 9.69482 17.6766C9.66487 17.637 9.64172 17.6061 9.62624 17.5853C9.6185 17.5749 9.61269 17.5671 9.60891 17.562C9.60701 17.5594 9.60563 17.5575 9.60477 17.5564C9.60434 17.5558 9.60404 17.5554 9.60387 17.5552C9.60379 17.555 9.60374 17.555 9.60372 17.5549C9.60371 17.5549 9.60372 17.555 9.60372 17.5549C9.60374 17.555 9.60377 17.555 8.99988 17.9998C8.39599 18.4445 8.39603 18.4446 8.39609 18.4447C8.39612 18.4447 8.39618 18.4448 8.39624 18.4449C8.39635 18.445 8.39651 18.4452 8.39669 18.4455C8.39706 18.446 8.39756 18.4467 8.39819 18.4475C8.39946 18.4493 8.40126 18.4517 8.40357 18.4548C8.4082 18.4611 8.41489 18.4701 8.42352 18.4816C8.4408 18.5048 8.46588 18.5383 8.49789 18.5807C8.56188 18.6654 8.65369 18.7858 8.76619 18.9299C8.99058 19.2175 9.30012 19.6033 9.63707 19.9914C9.9708 20.3758 10.3462 20.7795 10.701 21.0929C10.8775 21.2489 11.0666 21.3985 11.2567 21.513C11.4262 21.6152 11.6921 21.7496 11.9998 21.7496L11.9998 20.2496ZM14.9999 17.9998C14.396 17.555 14.396 17.5549 14.396 17.5549C14.396 17.5549 14.3961 17.5549 14.396 17.5549C14.396 17.5549 14.396 17.555 14.3959 17.5551C14.3957 17.5553 14.3954 17.5558 14.395 17.5563C14.3941 17.5575 14.3927 17.5594 14.3909 17.5619C14.3871 17.567 14.3813 17.5749 14.3735 17.5853C14.358 17.606 14.3349 17.637 14.3049 17.6766C14.245 17.7559 14.158 17.87 14.051 18.007C13.8365 18.282 13.5442 18.6461 13.23 19.008C12.9125 19.3736 12.5873 19.7199 12.3055 19.9689C12.1637 20.0941 12.0506 20.1789 11.9685 20.2284C11.8659 20.2903 11.8898 20.2496 11.9998 20.2496L11.9998 21.7496C12.3075 21.7496 12.5734 21.6152 12.7429 21.5131C12.933 21.3985 13.1221 21.2489 13.2987 21.093C13.6535 20.7795 14.0289 20.3758 14.3626 19.9914C14.6996 19.6033 15.0091 19.2174 15.2335 18.9299C15.346 18.7858 15.4379 18.6654 15.5019 18.5807C15.5339 18.5383 15.5589 18.5048 15.5762 18.4816C15.5849 18.47 15.5915 18.461 15.5962 18.4548C15.5985 18.4517 15.6003 18.4492 15.6016 18.4475C15.6022 18.4467 15.6027 18.446 15.6031 18.4455C15.6032 18.4452 15.6034 18.445 15.6035 18.4449C15.6036 18.4448 15.6036 18.4447 15.6037 18.4447C15.6037 18.4446 15.6038 18.4445 14.9999 17.9998Z" fill="#141B34"/>
</svg>
