<svg width="24" height="24" viewBox="0 0 24 24" fill="none" xmlns="http://www.w3.org/2000/svg">
<path d="M14.2202 17.9912C14.2097 17.2413 13.6944 14.7578 14.221 14.2313C14.7475 13.7049 17.2302 14.2213 17.9799 14.2321M20.99 20.9946L14.6052 14.6112" stroke="#141B34" stroke-width="1.5" stroke-linecap="round" stroke-linejoin="round"/>
<path d="M9.76199 17.9912C9.77249 17.2413 10.2877 14.7578 9.76119 14.2313C9.23466 13.7049 6.75194 14.2213 6.00223 14.2321M2.99219 20.9946L9.37697 14.6112" stroke="#141B34" stroke-width="1.5" stroke-linecap="round" stroke-linejoin="round"/>
<path d="M5.99789 9.75791C6.74762 9.76748 9.23116 10.2798 9.75687 9.75244C10.2825 9.22511 9.76307 6.74239 9.75139 5.9925M9.36739 9.36401L2.99219 2.99902" stroke="#141B34" stroke-width="1.5" stroke-linecap="round" stroke-linejoin="round"/>
<path d="M17.982 9.75791C17.2323 9.76748 14.7488 10.2798 14.2231 9.75244C13.6975 9.22511 14.2169 6.74239 14.2285 5.9925M14.6126 9.36401L20.9877 2.99902" stroke="#141B34" stroke-width="1.5" stroke-linecap="round" stroke-linejoin="round"/>
</svg>
