<svg width="24" height="24" viewBox="0 0 24 24" fill="none" xmlns="http://www.w3.org/2000/svg">
<path d="M3.46976 19.4697C3.17687 19.7626 3.17687 20.2374 3.46976 20.5303C3.76265 20.8232 4.23753 20.8232 4.53042 20.5303L3.46976 19.4697ZM20.5304 4.53033C20.8233 4.23744 20.8233 3.76256 20.5304 3.46967C20.2375 3.17678 19.7627 3.17678 19.4698 3.46967L20.5304 4.53033ZM4.53042 20.5303L20.5304 4.53033L19.4698 3.46967L3.46976 19.4697L4.53042 20.5303Z" fill="#141B34"/>
<path d="M16.5001 3.26621C17.3445 3.25421 20.141 2.67328 20.7339 3.26621C21.3268 3.85913 20.7459 6.65559 20.7339 7.5" stroke="#141B34" stroke-width="1.5" stroke-linecap="round" stroke-linejoin="round"/>
<path d="M3.2663 16.5C3.2543 17.3444 2.67338 20.1409 3.2663 20.7338C3.85922 21.3267 6.65568 20.7458 7.50009 20.7338" stroke="#141B34" stroke-width="1.5" stroke-linecap="round" stroke-linejoin="round"/>
</svg>
