<svg width="24" height="24" viewBox="0 0 24 24" fill="none" xmlns="http://www.w3.org/2000/svg">
<path d="M20 5.99966L20 18.0003" stroke="#141B34" stroke-width="1.5" stroke-linecap="round" stroke-linejoin="round"/>
<path d="M11.503 12.011V12.3815C11.4624 15.3526 11.5973 16.3848 12.8479 15.9056L13.1559 15.7237L13.4046 15.5509L13.9398 15.1379L14.9402 14.2686L15.963 13.4049L16.463 12.9517L16.6857 12.7252L16.9479 12.3461L17.0017 12.0099L16.9479 11.6758L16.6857 11.2968L16.463 11.0702L15.963 10.6171L14.9402 9.75335L13.9398 8.88402L13.4046 8.47104L13.1559 8.29826L12.8479 8.11634C11.5973 7.63711 11.4624 8.66935 11.503 11.6405V12.011ZM11.503 12.011H4" stroke="#141B34" stroke-width="1.5" stroke-linecap="round" stroke-linejoin="round"/>
</svg>
