<svg width="24" height="24" viewBox="0 0 24 24" fill="none" xmlns="http://www.w3.org/2000/svg">
<path d="M13 2.04725C12.6711 2.016 12.3375 2 12 2C6.47778 2 2 6.28357 2 11.5667C2 14.1051 3.03333 16.4115 4.71889 18.1231C5.09 18.5 5.33778 19.0148 5.23778 19.5448C5.07275 20.4112 4.69874 21.2194 4.15111 21.893C5.59195 22.161 7.09014 21.9197 8.37499 21.2364C8.82918 20.9949 9.05627 20.8741 9.21653 20.8496C9.37678 20.8251 9.60633 20.8682 10.0654 20.9545C10.7032 21.0742 11.3507 21.1343 12 21.1334C16.83 21.1334 21.0653 17.8565 22 13.5" stroke="#141B34" stroke-width="1.5" stroke-linecap="round" stroke-linejoin="round"/>
<path d="M16.3913 8.06671L15.9657 7.44912H15.9657L16.3913 8.06671ZM20.6087 8.06671L21.0343 7.44912H21.0343L20.6087 8.06671ZM15.2771 10.1885L14.7216 10.6924H14.7216L15.2771 10.1885ZM21.7229 10.1885L21.1673 9.68456L21.7229 10.1885ZM16.8168 8.68431C17.8508 7.9719 19.1492 7.9719 20.1832 8.68431L21.0343 7.44912C19.4878 6.38363 17.5122 6.38363 15.9657 7.44912L16.8168 8.68431ZM16.7853 11.75H20.2147V10.25H16.7853V11.75ZM15.8327 9.68456C15.7223 9.5629 15.7535 9.53349 15.7499 9.57215C15.7492 9.57905 15.7535 9.5242 15.8606 9.4029C16.0995 9.13236 16.4622 8.92863 16.8168 8.68431L15.9657 7.44912C15.7702 7.58388 15.1365 7.95673 14.7362 8.41013C14.5237 8.65081 14.2977 8.99478 14.2565 9.43108C14.2123 9.89913 14.3927 10.3297 14.7216 10.6924L15.8327 9.68456ZM20.1832 8.68431C20.5378 8.92863 20.9005 9.13236 21.1394 9.4029C21.2465 9.5242 21.2508 9.57905 21.2501 9.57215C21.2465 9.53349 21.2777 9.5629 21.1673 9.68456L22.2784 10.6924C22.6073 10.3297 22.7877 9.89913 22.7435 9.43108C22.7023 8.99478 22.4763 8.65081 22.2638 8.41013C21.8635 7.95673 21.2298 7.58388 21.0343 7.44912L20.1832 8.68431ZM21.1673 9.68456C20.7916 10.0987 20.5007 10.25 20.2147 10.25V11.75C21.1306 11.75 21.7957 11.2245 22.2784 10.6924L21.1673 9.68456ZM14.7216 10.6924C15.2043 11.2245 15.8694 11.75 16.7853 11.75V10.25C16.4993 10.25 16.2083 10.0987 15.8327 9.68456L14.7216 10.6924ZM19.5 3.8C19.5 4.39996 19.0325 4.85 18.5 4.85V6.35C19.9005 6.35 21 5.18827 21 3.8H19.5ZM18.5 4.85C17.9675 4.85 17.5 4.39996 17.5 3.8H16C16 5.18827 17.0995 6.35 18.5 6.35V4.85ZM17.5 3.8C17.5 3.20004 17.9675 2.75 18.5 2.75V1.25C17.0995 1.25 16 2.41173 16 3.8H17.5ZM18.5 2.75C19.0325 2.75 19.5 3.20004 19.5 3.8H21C21 2.41173 19.9005 1.25 18.5 1.25V2.75Z" fill="#141B34"/>
<path d="M11.9955 12H12.0045M8 12H8.00897" stroke="#141B34" stroke-width="2" stroke-linecap="round" stroke-linejoin="round"/>
</svg>
