<svg width="24" height="24" viewBox="0 0 24 24" fill="none" xmlns="http://www.w3.org/2000/svg">
<path d="M3.77762 11.9424C2.8296 10.2893 2.37185 8.93948 2.09584 7.57121C1.68762 5.54758 2.62181 3.57081 4.16938 2.30947C4.82345 1.77638 5.57323 1.95852 5.96 2.6524L6.83318 4.21891C7.52529 5.46057 7.87134 6.08139 7.8027 6.73959C7.73407 7.39779 7.26737 7.93386 6.33397 9.00601L3.77762 11.9424ZM3.77762 11.9424C5.69651 15.2883 8.70784 18.3013 12.0576 20.2224M12.0576 20.2224C13.7107 21.1704 15.0605 21.6282 16.4288 21.9042C18.4524 22.3124 20.4292 21.3782 21.6905 19.8306C22.2236 19.1766 22.0415 18.4268 21.3476 18.04L19.7811 17.1668C18.5394 16.4747 17.9186 16.1287 17.2604 16.1973C16.6022 16.2659 16.0661 16.7326 14.994 17.666L12.0576 20.2224Z" stroke="#141B34" stroke-width="1.5" stroke-linejoin="round"/>
<path d="M19.25 11C19.25 11.4142 19.5858 11.75 20 11.75C20.4142 11.75 20.75 11.4142 20.75 11H19.25ZM14.9773 8.53781C15.2743 8.82651 15.7491 8.81977 16.0378 8.52274C16.3265 8.22572 16.3198 7.75089 16.0227 7.46219L14.9773 8.53781ZM16.0227 3.53781C16.3198 3.24911 16.3265 2.77428 16.0378 2.47726C15.7491 2.18023 15.2743 2.17349 14.9773 2.46219L16.0227 3.53781ZM13 6.25H16V4.75H13V6.25ZM19.25 9.5V11H20.75V9.5H19.25ZM16 6.25C17.7949 6.25 19.25 7.70507 19.25 9.5H20.75C20.75 6.87665 18.6234 4.75 16 4.75V6.25ZM12.25 5.5C12.25 5.75829 12.339 5.98074 12.4254 6.14218C12.515 6.30957 12.631 6.46517 12.7485 6.60321C12.9832 6.87869 13.285 7.15426 13.5755 7.40046C13.8693 7.64944 14.1784 7.89047 14.4328 8.09029C14.7042 8.30349 14.886 8.44911 14.9773 8.53781L16.0227 7.46219C15.8612 7.30513 15.604 7.1029 15.3593 6.91067C15.0975 6.70507 14.8132 6.48311 14.5452 6.25606C14.274 6.02623 14.0456 5.81273 13.8905 5.63061C13.8132 5.53986 13.7694 5.47453 13.7479 5.43443C13.7233 5.38838 13.75 5.41677 13.75 5.5H12.25ZM14.9773 2.46219C14.886 2.55089 14.7042 2.69651 14.4328 2.90971C14.1784 3.10953 13.8693 3.35056 13.5755 3.59954C13.285 3.84574 12.9832 4.12131 12.7485 4.39679C12.631 4.53483 12.515 4.69043 12.4254 4.85782C12.339 5.01926 12.25 5.24171 12.25 5.5H13.75C13.75 5.58323 13.7233 5.61162 13.7479 5.56557C13.7694 5.52547 13.8132 5.46014 13.8905 5.36939C14.0456 5.18727 14.274 4.97377 14.5452 4.74394C14.8132 4.51689 15.0975 4.29493 15.3593 4.08933C15.604 3.8971 15.8612 3.69487 16.0227 3.53781L14.9773 2.46219Z" fill="#141B34"/>
</svg>
