<svg width="24" height="24" viewBox="0 0 24 24" fill="none" xmlns="http://www.w3.org/2000/svg">
<path d="M11.8841 10.4426L12.3554 9.85918L11.8841 10.4426ZM11.579 10.149L12.1444 9.65616V9.65616L11.579 10.149ZM21.421 10.149L20.8556 9.65616V9.65616L21.421 10.149ZM21.1159 10.4426L20.6446 9.85918L21.1159 10.4426ZM21.1159 2.55736L20.6446 3.14082L21.1159 2.55736ZM21.421 2.85101L20.8556 3.34384V3.34384L21.421 2.85101ZM11.8841 2.55736L12.3554 3.14082L11.8841 2.55736ZM11.579 2.85101L12.1444 3.34384V3.34384L11.579 2.85101ZM11 4.75C10.5858 4.75 10.25 5.08579 10.25 5.5C10.25 5.91421 10.5858 6.25 11 6.25L11 4.75ZM22 6.25C22.4142 6.25 22.75 5.91421 22.75 5.5C22.75 5.08579 22.4142 4.75 22 4.75V6.25ZM15.675 2.75H17.325V1.25H15.675V2.75ZM17.325 10.25H15.675V11.75H17.325V10.25ZM15.675 10.25C14.6234 10.25 13.8992 10.2488 13.3492 10.1853C12.8141 10.1235 12.544 10.0115 12.3554 9.85918L11.4128 11.0261C11.9143 11.4311 12.506 11.5978 13.177 11.6754C13.8332 11.7512 14.6594 11.75 15.675 11.75V10.25ZM10.25 6.5C10.25 7.47553 10.2486 8.27674 10.3281 8.91439C10.4101 9.57138 10.5874 10.1528 11.0137 10.6418L12.1444 9.65616C11.9916 9.48092 11.8795 9.23279 11.8166 8.7288C11.7514 8.20547 11.75 7.51431 11.75 6.5H10.25ZM12.3554 9.85918C12.2787 9.79726 12.2081 9.7293 12.1444 9.65616L11.0137 10.6418C11.1352 10.7812 11.2688 10.9097 11.4128 11.0261L12.3554 9.85918ZM21.25 6.5C21.25 7.51431 21.2486 8.20547 21.1834 8.7288C21.1205 9.23279 21.0084 9.48092 20.8556 9.65616L21.9863 10.6418C22.4126 10.1528 22.5899 9.57138 22.6719 8.91439C22.7514 8.27674 22.75 7.47553 22.75 6.5H21.25ZM17.325 11.75C18.3406 11.75 19.1668 11.7512 19.823 11.6754C20.494 11.5978 21.0857 11.4311 21.5872 11.0261L20.6446 9.85918C20.456 10.0115 20.1859 10.1235 19.6508 10.1853C19.1008 10.2488 18.3766 10.25 17.325 10.25V11.75ZM20.8556 9.65616C20.7919 9.7293 20.7213 9.79726 20.6446 9.85918L21.5872 11.0261C21.7312 10.9097 21.8648 10.7812 21.9863 10.6418L20.8556 9.65616ZM17.325 2.75C18.3766 2.75 19.1008 2.75117 19.6508 2.81472C20.1859 2.87653 20.456 2.98847 20.6446 3.14082L21.5872 1.97391C21.0857 1.5689 20.494 1.40215 19.823 1.32463C19.1668 1.24883 18.3406 1.25 17.325 1.25V2.75ZM22.75 6.5C22.75 5.52447 22.7514 4.72326 22.6719 4.08561C22.5899 3.42862 22.4126 2.84717 21.9863 2.35818L20.8556 3.34384C21.0084 3.51908 21.1205 3.76721 21.1834 4.2712C21.2486 4.79453 21.25 5.48569 21.25 6.5H22.75ZM20.6446 3.14082C20.7213 3.20274 20.7919 3.2707 20.8556 3.34384L21.9863 2.35818C21.8648 2.21883 21.7312 2.09029 21.5872 1.97391L20.6446 3.14082ZM15.675 1.25C14.6594 1.25 13.8332 1.24883 13.177 1.32463C12.506 1.40215 11.9143 1.5689 11.4128 1.97391L12.3554 3.14082C12.544 2.98847 12.8141 2.87653 13.3492 2.81472C13.8992 2.75117 14.6234 2.75 15.675 2.75V1.25ZM11.75 6.5C11.75 5.48569 11.7514 4.79453 11.8166 4.2712C11.8795 3.76721 11.9916 3.51908 12.1444 3.34384L11.0137 2.35818C10.5874 2.84717 10.4101 3.42862 10.3281 4.08561C10.2486 4.72326 10.25 5.52447 10.25 6.5H11.75ZM11.4128 1.97391C11.2688 2.09029 11.1352 2.21883 11.0137 2.35818L12.1444 3.34384C12.2081 3.2707 12.2787 3.20274 12.3554 3.14082L11.4128 1.97391ZM11 6.25L22 6.25V4.75L11 4.75L11 6.25Z" fill="#141B34"/>
<path d="M2 15.75C1.58579 15.75 1.25 16.0858 1.25 16.5C1.25 16.9142 1.58579 17.25 2 17.25L2 15.75ZM13 17.25C13.4142 17.25 13.75 16.9142 13.75 16.5C13.75 16.0858 13.4142 15.75 13 15.75V17.25ZM2.8841 21.4426L3.35535 20.8592L2.8841 21.4426ZM2.57904 21.149L3.14439 20.6562L3.14439 20.6562L2.57904 21.149ZM12.421 21.149L11.8556 20.6562V20.6562L12.421 21.149ZM12.1159 21.4426L11.6446 20.8592L12.1159 21.4426ZM12.1159 13.5574L11.6446 14.1408L12.1159 13.5574ZM12.421 13.851L11.8556 14.3438V14.3438L12.421 13.851ZM2.8841 13.5574L3.35535 14.1408L2.8841 13.5574ZM2.57904 13.851L3.14439 14.3438L3.14439 14.3438L2.57904 13.851ZM2 17.25L13 17.25V15.75L2 15.75L2 17.25ZM6.675 13.75H8.325V12.25H6.675V13.75ZM8.325 21.25H6.675V22.75H8.325V21.25ZM6.675 21.25C5.62339 21.25 4.8992 21.2488 4.34919 21.1853C3.81414 21.1235 3.54398 21.0115 3.35535 20.8592L2.41285 22.0261C2.91429 22.4311 3.50598 22.5978 4.17705 22.6754C4.83317 22.7512 5.65939 22.75 6.675 22.75V21.25ZM1.25 17.5C1.25 18.4755 1.24864 19.2767 1.32814 19.9144C1.41006 20.5714 1.58742 21.1528 2.01369 21.6418L3.14439 20.6562C2.99162 20.4809 2.87946 20.2328 2.81662 19.7288C2.75136 19.2055 2.75 18.5143 2.75 17.5H1.25ZM3.35535 20.8592C3.27869 20.7973 3.20814 20.7293 3.14439 20.6562L2.01369 21.6418C2.13517 21.7812 2.26876 21.9097 2.41285 22.0261L3.35535 20.8592ZM12.25 17.5C12.25 18.5143 12.2486 19.2055 12.1834 19.7288C12.1205 20.2328 12.0084 20.4809 11.8556 20.6562L12.9863 21.6418C13.4126 21.1528 13.5899 20.5714 13.6719 19.9144C13.7514 19.2767 13.75 18.4755 13.75 17.5H12.25ZM8.325 22.75C9.34061 22.75 10.1668 22.7512 10.823 22.6754C11.494 22.5978 12.0857 22.4311 12.5872 22.0261L11.6446 20.8592C11.456 21.0115 11.1859 21.1235 10.6508 21.1853C10.1008 21.2488 9.37661 21.25 8.325 21.25V22.75ZM11.8556 20.6562C11.7919 20.7293 11.7213 20.7973 11.6446 20.8592L12.5872 22.0261C12.7312 21.9097 12.8648 21.7812 12.9863 21.6418L11.8556 20.6562ZM8.325 13.75C9.37661 13.75 10.1008 13.7512 10.6508 13.8147C11.1859 13.8765 11.456 13.9885 11.6446 14.1408L12.5872 12.9739C12.0857 12.5689 11.494 12.4022 10.823 12.3246C10.1668 12.2488 9.34061 12.25 8.325 12.25V13.75ZM13.75 17.5C13.75 16.5245 13.7514 15.7233 13.6719 15.0856C13.5899 14.4286 13.4126 13.8472 12.9863 13.3582L11.8556 14.3438C12.0084 14.5191 12.1205 14.7672 12.1834 15.2712C12.2486 15.7945 12.25 16.4857 12.25 17.5H13.75ZM11.6446 14.1408C11.7213 14.2027 11.7919 14.2707 11.8556 14.3438L12.9863 13.3582C12.8648 13.2188 12.7312 13.0903 12.5872 12.9739L11.6446 14.1408ZM6.675 12.25C5.65939 12.25 4.83317 12.2488 4.17705 12.3246C3.50598 12.4022 2.91429 12.5689 2.41285 12.9739L3.35535 14.1408C3.54398 13.9885 3.81414 13.8765 4.34919 13.8147C4.8992 13.7512 5.62339 13.75 6.675 13.75V12.25ZM2.75 17.5C2.75 16.4857 2.75136 15.7945 2.81662 15.2712C2.87946 14.7672 2.99162 14.5191 3.14439 14.3438L2.01369 13.3582C1.58742 13.8472 1.41006 14.4286 1.32814 15.0856C1.24864 15.7233 1.25 16.5245 1.25 17.5H2.75ZM2.41285 12.9739C2.26876 13.0903 2.13517 13.2188 2.01369 13.3582L3.14439 14.3438C3.20814 14.2707 3.27869 14.2027 3.35535 14.1408L2.41285 12.9739Z" fill="#141B34"/>
<path d="M2 10C2 6.68286 4.68286 4 8 4L7.14286 5.71429" stroke="#141B34" stroke-width="1.5" stroke-linecap="round" stroke-linejoin="round"/>
<path d="M22 14C22 17.3171 19.3171 20 16 20L16.8571 18.2857" stroke="#141B34" stroke-width="1.5" stroke-linecap="round" stroke-linejoin="round"/>
</svg>
