<svg width="24" height="24" viewBox="0 0 24 24" fill="none" xmlns="http://www.w3.org/2000/svg">
<path d="M17.0086 16C17.0086 16.4142 17.3444 16.75 17.7586 16.75C18.1728 16.75 18.5086 16.4142 18.5086 16H17.0086ZM7 5.25C6.58579 5.25 6.25 5.58579 6.25 6C6.25 6.41421 6.58579 6.75 7 6.75V5.25ZM16.0651 14.4878C15.7822 14.1852 15.3076 14.1693 15.005 14.4522C14.7025 14.7351 14.6865 15.2097 14.9694 15.5122L16.0651 14.4878ZM16.4907 16.0411L15.9429 16.5534L15.9429 16.5534L16.4907 16.0411ZM19.0265 16.0411L19.5744 16.5534L19.0265 16.0411ZM20.5478 15.5122C20.8307 15.2097 20.8148 14.7351 20.5122 14.4522C20.2097 14.1693 19.7351 14.1852 19.4522 14.4878L20.5478 15.5122ZM17.7586 17V17.75V17ZM18.5086 16C18.5086 12.4893 17.2248 9.77333 15.0961 7.94568C12.9829 6.13137 10.1058 5.25 7 5.25V6.75C9.83602 6.75 12.3382 7.55492 14.1189 9.08376C15.8841 10.5993 17.0086 12.8832 17.0086 16H18.5086ZM14.9694 15.5122L15.9429 16.5534L17.0385 15.5289L16.0651 14.4878L14.9694 15.5122ZM19.5744 16.5534L20.5478 15.5122L19.4522 14.4878L18.4787 15.5289L19.5744 16.5534ZM15.9429 16.5534C16.2269 16.8572 16.491 17.142 16.7354 17.3414C16.9947 17.553 17.3271 17.75 17.7586 17.75V16.25C17.8188 16.25 17.8161 16.2872 17.6837 16.1792C17.5364 16.059 17.3522 15.8643 17.0385 15.5289L15.9429 16.5534ZM18.4787 15.5289C18.1651 15.8643 17.9808 16.059 17.8335 16.1792C17.7011 16.2872 17.6984 16.25 17.7586 16.25V17.75C18.1902 17.75 18.5226 17.553 18.7819 17.3414C19.0262 17.142 19.2903 16.8572 19.5744 16.5534L18.4787 15.5289Z" fill="#141B34"/>
<path d="M21 21H10C6.70017 21 5.05025 21 4.02513 19.9749C3 18.9497 3 17.2998 3 14V3" stroke="#141B34" stroke-width="1.5" stroke-linecap="round"/>
</svg>
