<svg width="24" height="24" viewBox="0 0 24 24" fill="none" xmlns="http://www.w3.org/2000/svg">
<path d="M16 3.38462V2M19.6306 4.36369L20.6081 3.38462M20.6176 8H22" stroke="#141B34" stroke-width="1.5" stroke-linecap="round" stroke-linejoin="round"/>
<path d="M22 12C22 17.5228 17.5228 22 12 22C6.47715 22 2 17.5228 2 12C2 6.47715 6.47715 2 12 2" stroke="#141B34" stroke-width="1.5" stroke-linecap="round" stroke-linejoin="round"/>
<path d="M12 7.25C11.5858 7.25 11.25 7.58579 11.25 8C11.25 8.41421 11.5858 8.75 12 8.75V7.25ZM15.25 11.9704C15.25 12.3846 15.5858 12.7204 16 12.7204C16.4142 12.7204 16.75 12.3846 16.75 11.9704H15.25ZM12 8.75H14V7.25H12V8.75ZM15.25 9.98519V11.9704H16.75V9.98519H15.25ZM14 8.75C14.4925 8.75 14.7869 8.75157 14.9981 8.77975C15.0949 8.79268 15.1437 8.80794 15.1658 8.81699C15.171 8.81908 15.1744 8.82072 15.1764 8.82175C15.1783 8.82277 15.1792 8.82334 15.1793 8.82341C15.1794 8.82346 15.1791 8.8233 15.1788 8.823C15.1784 8.8227 15.1784 8.82263 15.1788 8.82302L16.2355 7.75843C15.9262 7.45148 15.5509 7.34024 15.1965 7.29293C14.863 7.24843 14.4504 7.25 14 7.25V8.75ZM16.75 9.98519C16.75 9.53863 16.7516 9.12771 16.7066 8.79538C16.6586 8.44089 16.5455 8.06614 16.2355 7.75843L15.1788 8.82302C15.1791 8.82337 15.1784 8.82265 15.1779 8.82192C15.1776 8.82141 15.1798 8.82447 15.1836 8.83371C15.1922 8.85437 15.2073 8.90148 15.2202 8.99671C15.2484 9.20497 15.25 9.49592 15.25 9.98519H16.75ZM15.1415 7.79824C12.2699 11.0965 9.00221 12.4316 6.45455 12.9481C5.17781 13.2069 4.08158 13.2598 3.30889 13.2486C2.9229 13.243 2.61881 13.2214 2.41473 13.2017C2.31273 13.1919 2.23584 13.1826 2.18633 13.1761C2.16158 13.1728 2.14369 13.1702 2.13294 13.1686C2.12757 13.1678 2.12398 13.1673 2.12222 13.167C2.12133 13.1668 2.12091 13.1668 2.12094 13.1668C2.12096 13.1668 2.12109 13.1668 2.12134 13.1668C2.12146 13.1669 2.12174 13.1669 2.1218 13.1669C2.1221 13.167 2.12243 13.167 2 13.907C1.87757 14.6469 1.87796 14.647 1.87838 14.647C1.87856 14.6471 1.87901 14.6471 1.87937 14.6472C1.88008 14.6473 1.88092 14.6474 1.88187 14.6476C1.88378 14.6479 1.88616 14.6483 1.889 14.6487C1.89469 14.6496 1.90225 14.6508 1.91164 14.6522C1.93043 14.655 1.95654 14.6587 1.98971 14.6631C2.05603 14.6719 2.15058 14.6832 2.27104 14.6948C2.51187 14.718 2.85678 14.7422 3.28708 14.7484C4.14697 14.761 5.35252 14.702 6.75256 14.4182C9.55845 13.8494 13.1443 12.3764 16.2728 8.78321L15.1415 7.79824Z" fill="#141B34"/>
</svg>
