<svg width="24" height="24" viewBox="0 0 24 24" fill="none" xmlns="http://www.w3.org/2000/svg">
<path d="M12 22C17.5228 22 22 17.5228 22 12C22 6.47715 17.5228 2 12 2C6.47715 2 2 6.47715 2 12C2 17.5228 6.47715 22 12 22Z" stroke="#141B34" stroke-width="1.5"/>
<path d="M9.51204 11.6382C8.98182 11.0263 7.91022 10.1594 8.01948 9.79968M8.01948 9.79968C8.01948 9.38066 9.07053 8.58159 9.51204 7.99573M8.01948 9.79968C9.93839 9.92168 12.4115 9.5466 13.419 10.346C14.4795 11.2331 14.0925 13.7556 14.1988 15.9883M14.1988 15.9883C13.6637 16.0352 12.9727 15.0031 12.3644 14.4688M14.1988 15.9883C14.5543 16.0859 15.4634 14.9806 15.9963 14.4712" stroke="#141B34" stroke-width="1.5" stroke-linecap="round" stroke-linejoin="round"/>
</svg>
