<svg width="24" height="24" viewBox="0 0 24 24" fill="none" xmlns="http://www.w3.org/2000/svg">
<path d="M12 22C17.5228 22 22 17.5228 22 12C22 6.47715 17.5228 2 12 2C6.47715 2 2 6.47715 2 12C2 17.5228 6.47715 22 12 22Z" stroke="#141B34" stroke-width="1.5"/>
<path d="M14.492 11.6431C15.0222 11.0312 16.0938 10.1644 15.9845 9.80462M15.9845 9.80462C15.9845 9.3856 14.9335 8.58654 14.492 8.00067M15.9845 9.80462C14.0656 9.92662 11.5925 9.55154 10.585 10.351C9.52456 11.2381 9.91151 13.7605 9.80522 15.9932M9.80522 15.9932C10.3404 16.0401 11.0314 15.0081 11.6397 14.4738M9.80522 15.9932C9.44975 16.0909 8.54065 14.9855 8.00769 14.4761" stroke="#141B34" stroke-width="1.5" stroke-linecap="round" stroke-linejoin="round"/>
</svg>
