<svg width="24" height="24" viewBox="0 0 24 24" fill="none" xmlns="http://www.w3.org/2000/svg">
<path d="M19 15V9C19 6.17157 19 4.75736 18.1213 3.87868C17.2426 3 15.8284 3 13 3H11C8.17157 3 6.75736 3 5.87868 3.87868C5 4.75736 5 6.17157 5 9V15C5 17.8284 5 19.2426 5.87868 20.1213C6.75736 21 8.17157 21 11 21H13C15.8284 21 17.2426 21 18.1213 20.1213C19 19.2426 19 17.8284 19 15Z" stroke="#141B34" stroke-width="1.5"/>
<path d="M9.59003 14.2408L9.17263 13.6177H9.17263L9.59003 14.2408ZM14.41 14.2408L14.8274 13.6177L14.41 14.2408ZM8.31674 16.5983L7.76836 17.1099H7.76836L8.31674 16.5983ZM15.6833 16.5983L15.1349 16.0866L15.6833 16.5983ZM10.0074 14.8639C11.2294 14.0454 12.7706 14.0454 13.9926 14.8639L14.8274 13.6177C13.1003 12.4608 10.8997 12.4608 9.17263 13.6177L10.0074 14.8639ZM10.0404 18.25H13.9596V16.75H10.0404V18.25ZM8.86512 16.0866C8.79096 16.0072 8.76468 15.9547 8.75587 15.9321C8.7485 15.9133 8.75009 15.9081 8.75013 15.9077C8.75122 15.8965 8.76635 15.8212 8.89626 15.6781C9.17981 15.3659 9.613 15.1281 10.0074 14.8639L9.17263 13.6177C8.93828 13.7747 8.23275 14.1775 7.78582 14.6697C7.55049 14.9288 7.30244 15.2967 7.25716 15.7626C7.20857 16.2627 7.40655 16.7221 7.76836 17.1099L8.86512 16.0866ZM13.9926 14.8639C14.387 15.1281 14.8202 15.3659 15.1037 15.6781C15.2336 15.8212 15.2488 15.8965 15.2499 15.9077C15.2499 15.9081 15.2515 15.9133 15.2441 15.9321C15.2353 15.9547 15.209 16.0072 15.1349 16.0866L16.2316 17.1099C16.5934 16.7221 16.7914 16.2627 16.7428 15.7626C16.6976 15.2967 16.4495 14.9288 16.2142 14.6697C15.7672 14.1775 15.0617 13.7747 14.8274 13.6177L13.9926 14.8639ZM15.1349 16.0866C14.701 16.5517 14.34 16.75 13.9596 16.75V18.25C14.9529 18.25 15.6845 17.6963 16.2316 17.1099L15.1349 16.0866ZM7.76836 17.1099C8.31548 17.6963 9.04709 18.25 10.0404 18.25V16.75C9.66001 16.75 9.29902 16.5517 8.86512 16.0866L7.76836 17.1099ZM13.25 8.5C13.25 9.19036 12.6904 9.75 12 9.75V11.25C13.5188 11.25 14.75 10.0188 14.75 8.5H13.25ZM12 9.75C11.3096 9.75 10.75 9.19036 10.75 8.5H9.25C9.25 10.0188 10.4812 11.25 12 11.25V9.75ZM10.75 8.5C10.75 7.80964 11.3096 7.25 12 7.25V5.75C10.4812 5.75 9.25 6.98122 9.25 8.5H10.75ZM12 7.25C12.6904 7.25 13.25 7.80964 13.25 8.5H14.75C14.75 6.98122 13.5188 5.75 12 5.75V7.25Z" fill="#141B34"/>
<path d="M22 7V17" stroke="#141B34" stroke-width="1.5" stroke-linecap="round"/>
<path d="M2 7V17" stroke="#141B34" stroke-width="1.5" stroke-linecap="round"/>
</svg>
