<svg width="24" height="24" viewBox="0 0 24 24" fill="none" xmlns="http://www.w3.org/2000/svg">
<path d="M4.5 10C4.5 6.22876 4.5 4.34315 5.67157 3.17157C6.84315 2 8.72876 2 12.5 2H14C17.7712 2 19.6569 2 20.8284 3.17157C22 4.34315 22 6.22876 22 10V14C22 17.7712 22 19.6569 20.8284 20.8284C19.6569 22 17.7712 22 14 22H12.5C8.72876 22 6.84315 22 5.67157 20.8284C4.5 19.6569 4.5 17.7712 4.5 14V10Z" stroke="#141B34" stroke-width="1.5"/>
<path d="M10.84 14.2408L10.4226 13.6177H10.4226L10.84 14.2408ZM15.66 14.2408L16.0774 13.6177L15.66 14.2408ZM9.56674 16.5983L9.01836 17.1099H9.01836L9.56674 16.5983ZM16.9333 16.5983L16.3849 16.0866L16.9333 16.5983ZM11.2574 14.8639C12.4794 14.0454 14.0206 14.0454 15.2426 14.8639L16.0774 13.6177C14.3503 12.4608 12.1497 12.4608 10.4226 13.6177L11.2574 14.8639ZM11.2904 18.25H15.2096V16.75H11.2904V18.25ZM10.1151 16.0866C10.041 16.0072 10.0147 15.9547 10.0059 15.9321C9.9985 15.9133 10.0001 15.9081 10.0001 15.9077C10.0012 15.8965 10.0164 15.8212 10.1463 15.6781C10.4298 15.3659 10.863 15.1281 11.2574 14.8639L10.4226 13.6177C10.1883 13.7747 9.48275 14.1775 9.03582 14.6697C8.80049 14.9288 8.55244 15.2967 8.50716 15.7626C8.45857 16.2627 8.65655 16.7221 9.01836 17.1099L10.1151 16.0866ZM15.2426 14.8639C15.637 15.1281 16.0702 15.3659 16.3537 15.6781C16.4836 15.8212 16.4988 15.8965 16.4999 15.9077C16.4999 15.9081 16.5015 15.9133 16.4941 15.9321C16.4853 15.9547 16.459 16.0072 16.3849 16.0866L17.4816 17.1099C17.8434 16.7221 18.0414 16.2627 17.9928 15.7626C17.9476 15.2967 17.6995 14.9288 17.4642 14.6697C17.0172 14.1775 16.3117 13.7747 16.0774 13.6177L15.2426 14.8639ZM16.3849 16.0866C15.951 16.5517 15.59 16.75 15.2096 16.75V18.25C16.2029 18.25 16.9345 17.6963 17.4816 17.1099L16.3849 16.0866ZM9.01836 17.1099C9.56548 17.6963 10.2971 18.25 11.2904 18.25V16.75C10.91 16.75 10.549 16.5517 10.1151 16.0866L9.01836 17.1099ZM14.5 8.5C14.5 9.19036 13.9404 9.75 13.25 9.75V11.25C14.7688 11.25 16 10.0188 16 8.5H14.5ZM13.25 9.75C12.5596 9.75 12 9.19036 12 8.5H10.5C10.5 10.0188 11.7312 11.25 13.25 11.25V9.75ZM12 8.5C12 7.80964 12.5596 7.25 13.25 7.25V5.75C11.7312 5.75 10.5 6.98122 10.5 8.5H12ZM13.25 7.25C13.9404 7.25 14.5 7.80964 14.5 8.5H16C16 6.98122 14.7688 5.75 13.25 5.75V7.25Z" fill="#141B34"/>
<path d="M4.5 6L2 6M4.5 12L2 12M4.5 18H2" stroke="#141B34" stroke-width="1.5" stroke-linecap="round" stroke-linejoin="round"/>
</svg>
