<svg width="24" height="24" viewBox="0 0 24 24" fill="none" xmlns="http://www.w3.org/2000/svg">
<path d="M13.0115 19.991C13.0115 19.991 11.5422 21.9924 11.0153 21.9933C10.4882 21.9942 9.01216 19.9978 9.01216 19.9978M14.9843 3.9904C14.9843 3.9904 13.5082 1.99495 12.9812 1.99585C12.4542 1.99675 10.985 3.99725 10.985 3.99725M12.849 2.2208C13.1413 3.63122 13.2584 6.27557 10.8073 7.58958C9.94478 8.13409 8.49883 8.03475 6.85347 8.03756C6.18283 8.07249 4.9637 8.64572 4.99675 10.077C5.02981 11.5084 6.20657 11.9763 6.79082 12.0314L16.8998 12.0142C17.7514 11.9981 18.9974 12.4894 19 14.005C19.0025 15.4847 17.6917 16.0662 16.708 15.9402C14.0438 15.5991 11.2533 16.4117 11.0151 19.9104L11.0186 21.9933" stroke="#141B34" stroke-width="1.5" stroke-linecap="round" stroke-linejoin="round"/>
</svg>
