<svg width="24" height="24" viewBox="0 0 24 24" fill="none" xmlns="http://www.w3.org/2000/svg">
<path d="M20.0019 15.0004C20.0019 15.0004 22.001 13.5274 22.001 13.0004C22.001 12.4733 20.0019 11.0004 20.0019 11.0004M21.7761 12.8677C20.3644 13.1577 17.7185 13.2702 16.4079 10.8165C15.8646 9.95293 15.9665 8.50693 15.9665 6.8613C15.9327 6.19049 15.3612 4.97019 13.9291 5.00081C12.4969 5.03143 12.0267 6.20757 11.9706 6.79182V16.9024C11.9852 17.7541 11.4915 18.9995 9.97506 18.9995C8.49458 18.9995 7.91507 17.6875 8.04276 16.7039C8.38861 14.0398 7.58034 11.2475 4.08011 11.0033H1.99609" stroke="#141B34" stroke-width="1.5" stroke-linecap="round" stroke-linejoin="round"/>
</svg>
