<svg width="24" height="24" viewBox="0 0 24 24" fill="none" xmlns="http://www.w3.org/2000/svg">
<path d="M3.99904 15C3.99904 15 2 13.527 2 13C2 12.4729 3.99906 11 3.99906 11M2.22485 12.8674C3.63652 13.1573 6.28249 13.2698 7.59302 10.8161C8.13634 9.95256 8.03448 8.50656 8.03448 6.86094C8.06829 6.19013 8.63974 4.96983 10.0719 5.00044C11.504 5.03106 11.9743 6.20721 12.0304 6.79145V16.9021C12.0158 17.7538 12.5095 18.9992 14.0259 18.9992C15.5064 18.9992 16.0859 17.6871 15.9582 16.7035C15.6123 14.0395 16.4206 11.2471 19.9208 11.0029H22.0049" stroke="#141B34" stroke-width="1.5" stroke-linecap="round" stroke-linejoin="round"/>
</svg>
