<svg width="24" height="24" viewBox="0 0 24 24" fill="none" xmlns="http://www.w3.org/2000/svg">
<path d="M3.99998 13C3.99998 13 2 11.527 2 11C2 10.4729 4 9.00001 4 9.00001M20.0058 15.0005C20.0058 15.0005 22.0049 13.5275 22.0049 13.0005C22.0049 12.4734 20.0058 11.0005 20.0058 11.0005M21.78 12.8679C20.3683 13.1578 17.7224 13.2703 16.4118 10.8166C15.8685 9.95305 15.9704 8.50705 15.9704 6.86143C15.9366 6.19062 15.3651 4.97032 13.933 5.00093C12.5008 5.03155 12.0306 6.2077 11.9745 6.79194V16.9026C11.9891 17.7543 11.4954 18.9997 9.97896 18.9997C8.49849 18.9997 7.91897 17.6876 8.04667 16.704C8.39252 14.0399 7.58425 11.2476 4.08402 11.0034H2" stroke="#141B34" stroke-width="1.5" stroke-linecap="round" stroke-linejoin="round"/>
</svg>
