<svg width="24" height="24" viewBox="0 0 24 24" fill="none" xmlns="http://www.w3.org/2000/svg">
<path d="M20 21.9999V18.9999C20 16.1715 20 14.7573 19.1213 13.8786C18.2426 12.9999 16.8284 12.9999 14 12.9999L12 14.9999L10 12.9999C7.17157 12.9999 5.75736 12.9999 4.87868 13.8786C4 14.7573 4 16.1715 4 18.9999V21.9999" stroke="#141B34" stroke-width="1.5" stroke-linecap="round" stroke-linejoin="round"/>
<path d="M16 13V18.5" stroke="#141B34" stroke-width="1.5" stroke-linecap="round" stroke-linejoin="round"/>
<path d="M8.5 13V17M8.5 17C9.60457 17 10.5 17.8954 10.5 19V20M8.5 17C7.39543 17 6.5 17.8954 6.5 19V20" stroke="#141B34" stroke-width="1.5" stroke-linecap="round" stroke-linejoin="round"/>
<path d="M15.5 6.49997V5.49997C15.5 3.56697 13.933 1.99997 12 1.99997C10.067 1.99997 8.5 3.56697 8.5 5.49997V6.49997C8.5 8.43297 10.067 9.99997 12 9.99997C13.933 9.99997 15.5 8.43297 15.5 6.49997Z" stroke="#141B34" stroke-width="1.5" stroke-linecap="round" stroke-linejoin="round"/>
<path d="M16.75 19.25C16.75 19.6642 16.4142 20 16 20C15.5858 20 15.25 19.6642 15.25 19.25C15.25 18.8358 15.5858 18.5 16 18.5C16.4142 18.5 16.75 18.8358 16.75 19.25Z" stroke="#141B34" stroke-width="1.5"/>
</svg>
