<svg width="24" height="24" viewBox="0 0 24 24" fill="none" xmlns="http://www.w3.org/2000/svg">
<path d="M4 22.0002V21.0002C4 19.131 4 18.1964 4.40192 17.5002C4.66523 17.0442 5.04394 16.6654 5.5 16.4021C6.19615 16.0002 7.13077 16.0002 9 16.0002L12 20.0002L15 16.0002C16.8692 16.0002 17.8038 16.0002 18.5 16.4021C18.9561 16.6654 19.3348 17.0442 19.5981 17.5002C20 18.1964 20 19.131 20 21.0002V22.0002" stroke="#141B34" stroke-width="1.5" stroke-linecap="round" stroke-linejoin="round"/>
<path d="M15.9374 7.99973L16.9552 3.86404C17.1882 2.91732 16.4833 2.00021 15.5228 2.00021H8.47724C7.51665 2.00021 6.81182 2.91732 7.04482 3.86404L8.06263 7.99973M15.9374 7.99973V9.99973C15.9374 12.2089 14.1745 13.9997 12 13.9997C9.82545 13.9997 8.06263 12.2089 8.06263 9.99973V7.99973M15.9374 7.99973H8.06263" stroke="#141B34" stroke-width="1.5" stroke-linecap="round" stroke-linejoin="round"/>
<path d="M11.9998 4.00021V5.99973M12.9995 4.99997L11 4.99997" stroke="#141B34" stroke-width="1.5" stroke-linecap="round" stroke-linejoin="round"/>
</svg>
