<svg width="24" height="24" viewBox="0 0 24 24" fill="none" xmlns="http://www.w3.org/2000/svg">
<path d="M20.0417 15.815C20.0417 16.2292 20.3775 16.565 20.7917 16.565C21.2059 16.565 21.5417 16.2292 21.5417 15.815H20.0417ZM16.75 19.1854C16.75 18.7712 16.4142 18.4354 16 18.4354C15.5858 18.4354 15.25 18.7712 15.25 19.1854H16.75ZM19.25 13C19.25 12.5858 18.9142 12.25 18.5 12.25C18.0858 12.25 17.75 12.5858 17.75 13L19.25 13ZM17.75 22C17.75 22.4142 18.0858 22.75 18.5 22.75C18.9142 22.75 19.25 22.4142 19.25 22H17.75ZM18.5 16.6206C17.7216 16.6206 17.3416 16.4859 17.1686 16.3609C17.0494 16.2747 16.9583 16.1452 16.9583 15.815H15.4583C15.4583 16.4871 15.6797 17.1354 16.2897 17.5764C16.8459 17.9786 17.6118 18.1206 18.5 18.1206V16.6206ZM16.9583 15.815C16.9583 15.3806 17.476 14.7502 18.5 14.7502V13.2502C16.9927 13.2502 15.4583 14.2448 15.4583 15.815H16.9583ZM18.5 14.7502C19.524 14.7502 20.0417 15.3806 20.0417 15.815H21.5417C21.5417 14.2448 20.0073 13.2502 18.5 13.2502V14.7502ZM20.25 19.1854C20.25 19.5763 20.1016 19.7936 19.8614 19.9485C19.5773 20.1317 19.1151 20.2502 18.5 20.2502V21.7502C19.2656 21.7502 20.0534 21.6095 20.6742 21.2093C21.3387 20.7808 21.75 20.0908 21.75 19.1854H20.25ZM18.5 20.2502C17.9506 20.2502 17.4838 20.0875 17.1728 19.8617C16.861 19.6354 16.75 19.3868 16.75 19.1854H15.25C15.25 19.9862 15.6986 20.6451 16.2916 21.0756C16.8855 21.5067 17.6687 21.7502 18.5 21.7502V20.2502ZM18.5 18.1206C19.2851 18.1206 19.7195 18.2485 19.9449 18.4063C20.112 18.5232 20.25 18.7152 20.25 19.1854H21.75C21.75 18.3593 21.4714 17.6438 20.8051 17.1774C20.1971 16.7519 19.3816 16.6206 18.5 16.6206V18.1206ZM19.25 14.0002L19.25 13L17.75 13L17.75 14.0002L19.25 14.0002ZM17.75 21.0002V22H19.25V21.0002H17.75Z" fill="#141B34"/>
<path d="M20 9.90909L20 7.81818C20 6.12494 20 5.27832 19.732 4.60214C19.3013 3.5151 18.3902 2.65765 17.2352 2.2522C16.5168 2 15.6173 2 13.8182 2C10.6698 2 9.09563 2 7.83836 2.44135C5.81714 3.15088 4.22282 4.65142 3.46894 6.55375C3 7.73706 3 9.21865 3 12.1818L3 14.7273C3 17.7966 3 19.3313 3.8477 20.3971C4.09058 20.7025 4.37862 20.9736 4.70307 21.2022C5.83546 22 7.46607 22 10.7273 22L11.5 22C12.0347 22 13.0337 22 13.5 21.9972" stroke="#141B34" stroke-width="1.5" stroke-linecap="round" stroke-linejoin="round"/>
<path d="M3 12C3 10.159 4.49238 8.66667 6.33333 8.66667C6.99912 8.66667 7.78404 8.78333 8.43137 8.60988C9.00652 8.45576 9.45576 8.00652 9.60988 7.43136C9.78333 6.78404 9.66667 5.99912 9.66667 5.33333C9.66667 3.49238 11.1591 2 13 2" stroke="#141B34" stroke-width="1.5" stroke-linecap="round" stroke-linejoin="round"/>
</svg>
