<svg width="24" height="24" viewBox="0 0 24 24" fill="none" xmlns="http://www.w3.org/2000/svg">
<path d="M12 5L10 2.20004C10.6462 2.06886 11.3151 2 12 2C17.5228 2 22 6.47715 22 12C22 17.5228 17.5228 22 12 22C6.47715 22 2 17.5228 2 12C2 8.72836 3.57111 5.82368 6 3.99927" stroke="#141B34" stroke-width="1.5" stroke-linejoin="round"/>
<path d="M9.00308 16.2626L9.00291 9.60116C9.00291 9.51719 8.90566 9.47061 8.84023 9.52325L6.98828 11.013M12.1188 15.516H15.3758C15.431 15.516 15.4758 15.4712 15.4758 15.416V9.6101C15.4758 9.55487 15.431 9.5101 15.3758 9.5101H12.1188C12.0636 9.5101 12.0188 9.55487 12.0188 9.6101V15.416C12.0188 15.4712 12.0636 15.516 12.1188 15.516Z" stroke="#141B34" stroke-width="1.5"/>
</svg>
