<svg width="24" height="24" viewBox="0 0 24 24" fill="none" xmlns="http://www.w3.org/2000/svg">
<path d="M12 5L13.1039 3.45459C13.5149 2.87911 13.7205 2.59137 13.5907 2.32411C13.4609 2.05684 13.1311 2.04153 12.4714 2.01092C12.3152 2.00367 12.158 2 12 2C6.4772 2 2 6.47715 2 12C2 17.5228 6.4772 22 12 22C17.5229 22 22 17.5228 22 12C22 8.72836 20.4289 5.82368 18 3.99927" stroke="#141B34" stroke-width="1.5" stroke-linecap="round" stroke-linejoin="round"/>
<path d="M16.752 12.6C16.752 11.22 16.818 10.848 16.554 10.404C16.29 9.96 15.63 9.9984 14.97 9.99839C14.31 9.99839 13.83 9.96 13.512 10.32C13.122 10.74 13.29 11.52 13.242 12.6C13.35 14.04 13.056 15.18 13.506 15.66C13.83 16.056 14.4051 15.996 15.09 16.008C15.7699 15.9997 16.182 16.032 16.518 15.648C16.89 15.312 16.71 13.98 16.752 12.6Z" stroke="#141B34" stroke-width="1.3" stroke-linecap="round"/>
<path d="M7.24609 11.1241C7.37809 10.0801 8.21809 9.96011 9.05809 10.0021C9.71809 9.97211 10.7381 10.0201 10.7501 11.5201C10.7381 13.0801 9.50209 12.9713 9.50209 12.9961C9.50209 13.0209 10.7981 12.9601 10.7501 14.5201C10.7381 15.9001 9.83809 16.0441 8.99809 15.9961C8.15809 16.0561 7.37809 15.8401 7.24609 14.8801" stroke="#141B34" stroke-width="1.3" stroke-linecap="round"/>
</svg>
