<svg width="24" height="24" viewBox="0 0 24 24" fill="none" xmlns="http://www.w3.org/2000/svg">
<path d="M12 5L13.1039 3.45459C13.5149 2.87911 13.7205 2.59137 13.5907 2.32411C13.4609 2.05684 13.1311 2.04153 12.4714 2.01092C12.3152 2.00367 12.158 2 12 2C6.4772 2 2 6.47715 2 12C2 17.5228 6.4772 22 12 22C17.5229 22 22 17.5228 22 12C22 8.72836 20.4289 5.82368 18 3.99927" stroke="#141B34" stroke-width="1.5" stroke-linecap="round" stroke-linejoin="round"/>
<path d="M16.503 12.5939C16.4983 11.2197 16.566 10.845 16.3139 10.4018C16.0617 9.9586 15.4313 9.99693 14.8008 9.99693C14.1704 9.99693 13.7383 9.99693 13.444 10.306C13.112 10.6988 13.1983 11.0997 13.1839 12.5819C13.1983 14.6397 13.0783 15.3597 13.4383 15.6597C13.7983 16.0797 14.2612 15.9838 14.9155 15.9957C15.5649 15.9875 15.9585 16.0197 16.2795 15.6364C16.6348 15.301 16.4629 13.9714 16.503 12.5939Z" stroke="#141B34" stroke-width="1.3" stroke-linecap="round"/>
<path d="M10.7624 10.9921C10.7384 10.2601 10.3455 9.99615 9.1917 9.99615C7.945 9.9814 7.5104 10.0201 7.4984 11.4001C7.4984 12.6002 7.4984 12.9602 7.4984 14.7602C7.4984 16.2602 8.6384 15.9662 9.2384 16.0022C9.7184 15.9662 10.7461 16.2376 10.8164 14.7002C10.7384 13.2602 10.1984 13.2602 9.2384 13.2602C7.91841 13.2602 7.85841 13.2602 7.4984 14.0691" stroke="#141B34" stroke-width="1.3" stroke-linecap="round"/>
</svg>
