<svg width="24" height="24" viewBox="0 0 24 24" fill="none" xmlns="http://www.w3.org/2000/svg">
<path d="M12 5L13.1039 3.45459C13.5149 2.87911 13.7205 2.59137 13.5907 2.32411C13.4609 2.05684 13.1311 2.04153 12.4714 2.01092C12.3152 2.00367 12.158 2 12 2C6.4772 2 2 6.47715 2 12C2 17.5228 6.4772 22 12 22C17.5229 22 22 17.5228 22 12C22 8.72836 20.4289 5.82368 18 3.99927" stroke="#141B34" stroke-width="1.5" stroke-linecap="round" stroke-linejoin="round"/>
<path d="M7.99219 11.0036C8.52019 10.5836 9.00019 9.891 9.30019 10.0196C9.60019 10.1481 9.50419 10.5716 9.50419 11.2316C9.50419 11.8916 9.50419 14.6843 9.50419 16.0076" stroke="#141B34" stroke-width="1.5" stroke-linecap="round"/>
<path d="M16.002 12.6C16.002 11.22 16.068 10.848 15.804 10.404C15.54 9.96 14.88 9.9984 14.22 9.9984C13.56 9.9984 13.08 9.96 12.762 10.32C12.372 10.74 12.54 11.52 12.492 12.6C12.6 14.04 12.306 15.18 12.756 15.66C13.08 16.056 13.6551 15.996 14.34 16.008C15.0199 15.9997 15.432 16.032 15.768 15.648C16.14 15.312 15.96 13.98 16.002 12.6Z" stroke="#141B34" stroke-width="1.5" stroke-linecap="round"/>
</svg>
