<svg width="24" height="24" viewBox="0 0 24 24" fill="none" xmlns="http://www.w3.org/2000/svg">
<path d="M2 2L22 22" stroke="#141B34" stroke-width="1.5" stroke-linecap="round"/>
<path d="M17.5039 13.11C17.9239 12.75 18.7219 12.48 18.8987 12.5042C19.5616 12.4383 19.9309 12.9128 20.3098 13.373C21.2532 14.5188 21.7248 15.0918 21.8974 15.7236C22.0367 16.2334 22.0819 16.836 21.7819 17.496" stroke="#141B34" stroke-width="1.5" stroke-linecap="round"/>
<path d="M7 14.3046C7 13.8694 6.98778 13.4782 6.63591 13.1722C6.50793 13.0609 6.33825 12.9836 5.99891 12.829C5.55001 12.6246 5.32556 12.5224 5.10316 12.5044C4.43591 12.4504 4.07692 12.9058 3.69213 13.3732C2.74875 14.519 2.27706 15.0919 2.10446 15.7237C1.96518 16.2336 1.96518 16.7668 2.10446 17.2766C2.3562 18.1981 3.15152 18.9705 3.74021 19.6856C4.11129 20.1363 4.46577 20.5475 5.10316 20.496C5.32556 20.478 5.55001 20.3757 5.99891 20.1713C6.33825 20.0167 6.50793 19.9394 6.63591 19.8281C6.98778 19.5221 7 19.131 7 18.6957V14.3046Z" stroke="#141B34" stroke-width="1.5"/>
<path d="M19 12.5V10.5C19 6.63401 15.866 3.5 12 3.5C10.6331 3.5 9.66 3.9 8.52 4.5M5 12.5V10.5C5 8.86982 5.64 7.74 6.48 6.54" stroke="#141B34" stroke-width="1.5" stroke-linecap="round" stroke-linejoin="round"/>
</svg>
