<svg width="24" height="24" viewBox="0 0 24 24" fill="none" xmlns="http://www.w3.org/2000/svg">
<path d="M21.9982 10C21.9958 9.67515 21.9912 9.35009 21.9842 9.02439C21.9189 5.95886 21.8862 4.42609 20.7551 3.29066C19.6239 2.15523 18.0497 2.11568 14.9012 2.03657C12.9607 1.98781 11.0393 1.98781 9.09882 2.03656C5.95033 2.11566 4.37608 2.15521 3.24495 3.29065C2.11382 4.42608 2.08114 5.95885 2.01576 9.02438C1.99474 10.0101 1.99475 10.9899 2.01577 11.9756C2.08114 15.0412 2.11383 16.5739 3.24496 17.7094C4.37608 18.8448 5.95033 18.8843 9.09883 18.9634C9.90159 18.9836 10.7011 18.9954 11.5 18.9989" stroke="#141B34" stroke-width="1.5" stroke-linecap="round" stroke-linejoin="round"/>
<path d="M17.25 22C17.25 22.4142 17.5858 22.75 18 22.75C18.4142 22.75 18.75 22.4142 18.75 22H17.25ZM15.1415 17.6115C14.927 17.2572 14.4658 17.1439 14.1115 17.3585C13.7572 17.573 13.6439 18.0342 13.8585 18.3885L15.1415 17.6115ZM22.1415 18.3885C22.3561 18.0342 22.2428 17.573 21.8885 17.3585C21.5342 17.1439 21.073 17.2572 20.8585 17.6115L22.1415 18.3885ZM19.0812 13.8824V15.2647H20.5812V13.8824H19.0812ZM16.9191 15.2647V13.8824H15.4191V15.2647H16.9191ZM18.0002 16.3971C17.4225 16.3971 16.9191 15.9098 16.9191 15.2647H15.4191C15.4191 16.6988 16.5553 17.8971 18.0002 17.8971V16.3971ZM19.0812 15.2647C19.0812 15.9098 18.5778 16.3971 18.0002 16.3971V17.8971C19.4451 17.8971 20.5812 16.6988 20.5812 15.2647H19.0812ZM18.0002 12.75C18.5778 12.75 19.0812 13.2373 19.0812 13.8824H20.5812C20.5812 12.4482 19.4451 11.25 18.0002 11.25V12.75ZM18.0002 11.25C16.5553 11.25 15.4191 12.4482 15.4191 13.8824H16.9191C16.9191 13.2373 17.4225 12.75 18.0002 12.75V11.25ZM17.25 20V22H18.75V20H17.25ZM18 19.25C16.8024 19.25 15.742 18.603 15.1415 17.6115L13.8585 18.3885C14.7124 19.7985 16.2432 20.75 18 20.75V19.25ZM20.8585 17.6115C20.258 18.603 19.1976 19.25 18 19.25V20.75C19.7568 20.75 21.2876 19.7985 22.1415 18.3885L20.8585 17.6115Z" fill="#141B34"/>
<path d="M7 7L9.94202 8.73943C11.6572 9.75352 12.3428 9.75352 14.058 8.73943L17 7" stroke="#141B34" stroke-width="1.5" stroke-linecap="round" stroke-linejoin="round"/>
</svg>
