<svg width="24" height="24" viewBox="0 0 24 24" fill="none" xmlns="http://www.w3.org/2000/svg">
<path d="M21.9598 10.9706C21.9711 11.1459 21.98 11.3225 21.9866 11.4999C22.011 12.1626 22.0021 12.8359 21.9598 13.4908C21.6856 17.7331 18.3536 21.1124 14.1706 21.3904C12.7435 21.4853 11.2536 21.4851 9.8294 21.3904C9.33896 21.3578 8.8044 21.2408 8.34401 21.0512C7.83177 20.8402 7.5756 20.7347 7.44544 20.7507C7.31527 20.7667 7.1264 20.906 6.74868 21.1845C6.08268 21.6757 5.24367 22.0284 3.99943 21.9981C3.37026 21.9828 3.05568 21.9751 2.91484 21.735C2.77401 21.4949 2.94941 21.1625 3.30021 20.4977C3.78674 19.5758 4.09501 18.5202 3.62791 17.6745C2.82343 16.4665 2.1401 15.0359 2.04024 13.4908C1.98659 12.6606 1.98659 11.8008 2.04024 10.9706C2.31441 6.72829 5.64639 3.34905 9.8294 3.07099C10.3789 3.03446 10.4383 3.01203 11 3.00366" stroke="#141B34" stroke-width="1.5" stroke-linecap="round" stroke-linejoin="round"/>
<path d="M11.9955 12.5H12.0045M15.991 12.5H16M8 12.5H8.00897" stroke="#141B34" stroke-width="2" stroke-linecap="round" stroke-linejoin="round"/>
<path d="M15.015 2.38661C16.0876 1.74692 17.0238 2.00471 17.5863 2.41534C17.8169 2.58371 17.9322 2.66789 18 2.66789C18.0678 2.66789 18.1831 2.58371 18.4137 2.41534C18.9762 2.00471 19.9124 1.74692 20.985 2.38661C22.3928 3.22614 22.7113 5.99577 19.4642 8.33241C18.8457 8.77747 18.5365 9 18 9C17.4635 9 17.1543 8.77747 16.5358 8.33241C13.2887 5.99577 13.6072 3.22614 15.015 2.38661Z" stroke="#141B34" stroke-width="1.5" stroke-linecap="round"/>
</svg>
