<svg width="24" height="24" viewBox="0 0 24 24" fill="none" xmlns="http://www.w3.org/2000/svg">
<path d="M11.9955 12.5H12.0045M8 12.5H8.00897" stroke="#141B34" stroke-width="2" stroke-linecap="round" stroke-linejoin="round"/>
<path d="M11.5 3.00366C10.9383 3.01203 10.3789 3.03449 9.8294 3.07102C5.64639 3.34908 2.31441 6.72832 2.04024 10.9707C1.98659 11.8009 1.98659 12.6606 2.04024 13.4908C2.1401 15.0359 2.82343 16.4665 3.62791 17.6746C4.09501 18.5203 3.78674 19.5758 3.30021 20.4978C2.94941 21.1625 2.77401 21.4949 2.91484 21.735C3.05568 21.9752 3.37026 21.9828 3.99943 21.9981C5.24367 22.0284 6.08268 21.6757 6.74868 21.1846C7.1264 20.906 7.31527 20.7668 7.44544 20.7508C7.5756 20.7347 7.83177 20.8403 8.34401 21.0512C8.8044 21.2408 9.33896 21.3579 9.8294 21.3905C11.2536 21.4851 12.7435 21.4853 14.1706 21.3905C18.3536 21.1124 21.6856 17.7332 21.9598 13.4908C21.9809 13.1639 21.9937 12.8324 21.9982 12.4999" stroke="#141B34" stroke-width="1.5" stroke-linecap="round" stroke-linejoin="round"/>
<path d="M18 6L19 5M22 6C22 8.20914 20.2091 10 18 10C15.7909 10 14 8.20914 14 6C14 3.79086 15.7909 2 18 2C20.2091 2 22 3.79086 22 6Z" stroke="#141B34" stroke-width="1.5" stroke-linecap="round"/>
</svg>
