<svg width="24" height="24" viewBox="0 0 24 24" fill="none" xmlns="http://www.w3.org/2000/svg">
<path d="M12.002 9C10.8974 9 10.002 9.67157 10.002 10.5C10.002 11.3284 10.8974 12 12.002 12C13.1065 12 14.002 12.6716 14.002 13.5C14.002 14.3284 13.1065 15 12.002 15M12.002 9C12.8728 9 13.6136 9.4174 13.8881 10M12.002 9V8M12.002 15C11.1311 15 10.3903 14.5826 10.1158 14M12.002 15V16" stroke="#141B34" stroke-width="1.5" stroke-linecap="round"/>
<path d="M13 2.5C13 2.5 12.6839 2.5 12 2.5C7.52166 2.5 5.28249 2.5 3.89124 3.89125C2.5 5.28249 2.5 7.52166 2.5 12C2.5 16.4783 2.5 18.7175 3.89124 20.1088C5.28249 21.5 7.52166 21.5 12 21.5C16.4783 21.5 18.7175 21.5 20.1088 20.1088C21.5 18.7175 21.5 16.4783 21.5 12C21.5 11.3161 21.5 11 21.5 11" stroke="#141B34" stroke-width="1.5" stroke-linecap="round"/>
<path d="M16.4301 6.46725C16.1359 6.75878 16.1337 7.23365 16.4252 7.5279C16.7168 7.82215 17.1916 7.82435 17.4859 7.53282L16.4301 6.46725ZM22.0279 3.03278C22.3221 2.74125 22.3243 2.26639 22.0328 1.97214C21.7413 1.67789 21.2664 1.67568 20.9721 1.96722L22.0279 3.03278ZM17.4717 7.27298L17.6025 6.53447L17.4717 7.27298ZM16.7272 6.52829L15.9887 6.65895V6.65895L16.7272 6.52829ZM20.9899 8.24578C21.4041 8.25145 21.7444 7.92029 21.7501 7.50611C21.7558 7.09194 21.4246 6.75159 21.0104 6.74592L20.9899 8.24578ZM17.2543 2.98972C17.2486 2.57555 16.9082 2.24441 16.4941 2.25011C16.0799 2.25581 15.7488 2.59618 15.7545 3.01035L17.2543 2.98972ZM17.4859 7.53282L22.0279 3.03278L20.9721 1.96722L16.4301 6.46725L17.4859 7.53282ZM17.6025 6.53447C17.552 6.52553 17.5245 6.50662 17.5091 6.49117C17.4936 6.47572 17.4747 6.44822 17.4657 6.39763L15.9887 6.65895C16.1128 7.36032 16.6393 7.88724 17.3409 8.01148L17.6025 6.53447ZM17.3409 8.01148C18.3556 8.19119 20.1531 8.23433 20.9899 8.24578L21.0104 6.74592C20.1429 6.73405 18.4745 6.6889 17.6025 6.53447L17.3409 8.01148ZM15.7545 3.01035C15.766 3.84717 15.8092 5.64439 15.9887 6.65895L17.4657 6.39763C17.3115 5.52556 17.2662 3.8572 17.2543 2.98972L15.7545 3.01035Z" fill="#141B34"/>
</svg>
