<svg width="24" height="24" viewBox="0 0 24 24" fill="none" xmlns="http://www.w3.org/2000/svg">
<path d="M14 2.20004C13.3538 2.06886 12.6849 2 12 2C6.47715 2 2 6.47715 2 12C2 17.5228 6.47715 22 12 22C17.5228 22 22 17.5228 22 12C22 11.3151 21.9311 10.6462 21.8 10" stroke="#141B34" stroke-width="1.5" stroke-linecap="round"/>
<path d="M12 9C10.8954 9 10 9.67157 10 10.5C10 11.3284 10.8954 12 12 12C13.1046 12 14 12.6716 14 13.5C14 14.3284 13.1046 15 12 15M12 9C12.8708 9 13.6116 9.4174 13.8862 10M12 9V8M12 15C11.1292 15 10.3884 14.5826 10.1138 14M12 15V16" stroke="#141B34" stroke-width="1.5" stroke-linecap="round"/>
<path d="M22.0699 3.03275C22.3641 2.74122 22.3663 2.26635 22.0748 1.9721C21.7832 1.67785 21.3084 1.67565 21.0141 1.96718L22.0699 3.03275ZM16.4721 6.46722C16.1779 6.75875 16.1757 7.23361 16.4672 7.52786C16.7587 7.82211 17.2336 7.82432 17.5279 7.53278L16.4721 6.46722ZM21.0283 2.22702L20.8975 2.96553L21.0283 2.22702ZM21.7728 2.97171L22.5113 2.84105V2.84105L21.7728 2.97171ZM17.5101 1.25422C17.0959 1.24855 16.7556 1.57971 16.7499 1.99389C16.7442 2.40806 17.0754 2.74841 17.4896 2.75408L17.5101 1.25422ZM21.2457 6.51028C21.2514 6.92445 21.5918 7.25559 22.0059 7.24989C22.4201 7.24419 22.7512 6.90382 22.7455 6.48965L21.2457 6.51028ZM21.0141 1.96718L16.4721 6.46722L17.5279 7.53278L22.0699 3.03275L21.0141 1.96718ZM20.8975 2.96553C20.948 2.97447 20.9755 2.99338 20.9909 3.00883C21.0064 3.02428 21.0253 3.05178 21.0343 3.10237L22.5113 2.84105C22.3872 2.13968 21.8607 1.61276 21.1591 1.48852L20.8975 2.96553ZM21.1591 1.48852C20.1444 1.30881 18.3469 1.26567 17.5101 1.25422L17.4896 2.75408C18.3571 2.76595 20.0255 2.8111 20.8975 2.96553L21.1591 1.48852ZM22.7455 6.48965C22.734 5.65283 22.6908 3.85561 22.5113 2.84105L21.0343 3.10237C21.1885 3.97444 21.2338 5.6428 21.2457 6.51028L22.7455 6.48965Z" fill="#141B34"/>
</svg>
