<svg width="24" height="24" viewBox="0 0 24 24" fill="none" xmlns="http://www.w3.org/2000/svg">
<path d="M12.002 9C10.8974 9 10.002 9.67157 10.002 10.5C10.002 11.3284 10.8974 12 12.002 12C13.1065 12 14.002 12.6716 14.002 13.5C14.002 14.3284 13.1065 15 12.002 15M12.002 9C12.8728 9 13.6136 9.4174 13.8881 10M12.002 9V8M12.002 15C11.1311 15 10.3903 14.5826 10.1158 14M12.002 15V16" stroke="#141B34" stroke-width="1.5" stroke-linecap="round"/>
<path d="M13.5 2.5C13.5 2.5 12.6839 2.5 12 2.5C7.52166 2.5 5.28249 2.5 3.89124 3.89125C2.5 5.28249 2.5 7.52166 2.5 12C2.5 16.4783 2.5 18.7175 3.89124 20.1088C5.28249 21.5 7.52166 21.5 12 21.5C16.4783 21.5 18.7175 21.5 20.1088 20.1088C21.5 18.7175 21.5 16.4783 21.5 12C21.5 11.3161 21.5 10.5 21.5 10.5" stroke="#141B34" stroke-width="1.5" stroke-linecap="round"/>
<path d="M21.5738 3.5286C21.868 3.23707 21.8702 2.7622 21.5787 2.46795C21.2872 2.1737 20.8123 2.1715 20.518 2.46303L21.5738 3.5286ZM15.976 6.96306C15.6818 7.2546 15.6796 7.72946 15.9711 8.02371C16.2627 8.31796 16.7375 8.32017 17.0318 8.02863L15.976 6.96306ZM20.5322 2.72287L20.4014 3.46138L20.5322 2.72287ZM21.2767 3.46756L22.0152 3.3369V3.3369L21.2767 3.46756ZM17.014 1.75007C16.5998 1.7444 16.2595 2.07556 16.2538 2.48974C16.2481 2.90391 16.5793 3.24426 16.9935 3.24993L17.014 1.75007ZM20.7496 7.00613C20.7553 7.4203 21.0957 7.75144 21.5098 7.74574C21.924 7.74004 22.2551 7.39967 22.2494 6.9855L20.7496 7.00613ZM20.518 2.46303L15.976 6.96306L17.0318 8.02863L21.5738 3.5286L20.518 2.46303ZM20.4014 3.46138C20.4519 3.47032 20.4794 3.48923 20.4948 3.50468C20.5103 3.52013 20.5292 3.54763 20.5382 3.59822L22.0152 3.3369C21.8911 2.63553 21.3646 2.10861 20.663 1.98437L20.4014 3.46138ZM20.663 1.98437C19.6483 1.80466 17.8508 1.76152 17.014 1.75007L16.9935 3.24993C17.861 3.2618 19.5294 3.30695 20.4014 3.46138L20.663 1.98437ZM22.2494 6.9855C22.2379 6.14868 22.1947 4.35146 22.0152 3.3369L20.5382 3.59822C20.6924 4.47029 20.7377 6.13865 20.7496 7.00613L22.2494 6.9855Z" fill="#141B34"/>
</svg>
