<svg width="24" height="24" viewBox="0 0 24 24" fill="none" xmlns="http://www.w3.org/2000/svg">
<path d="M14 2.20004C13.3538 2.06886 12.6849 2 12 2C6.47715 2 2 6.47715 2 12C2 17.5228 6.47715 22 12 22C17.5228 22 22 17.5228 22 12C22 11.3151 21.9311 10.6462 21.8 10" stroke="#141B34" stroke-width="1.5" stroke-linecap="round"/>
<path d="M22.5235 2.53694C22.8177 2.2454 22.8199 1.77054 22.5284 1.47629C22.2369 1.18204 21.762 1.17983 21.4678 1.47137L22.5235 2.53694ZM17.9673 6.77713L18.0981 6.03862L17.9673 6.77713ZM17.2228 6.03244L17.9614 5.90178L17.9614 5.90178L17.2228 6.03244ZM21.4855 7.74993C21.8997 7.7556 22.24 7.42444 22.2457 7.01026C22.2514 6.59609 21.9202 6.25574 21.506 6.25007L21.4855 7.74993ZM17.7499 2.49387C17.7442 2.0797 17.4039 1.74856 16.9897 1.75426C16.5755 1.75995 16.2444 2.10033 16.2501 2.5145L17.7499 2.49387ZM17.9815 7.03697L22.5235 2.53694L21.4678 1.47137L16.9258 5.9714L17.9815 7.03697ZM18.0981 6.03862C18.0452 6.02925 18.0173 6.00894 18.0018 5.99235L16.9054 7.01602C17.1517 7.27978 17.4767 7.45192 17.8365 7.51563L18.0981 6.03862ZM18.0018 5.99235C17.9874 5.97693 17.9699 5.94989 17.9614 5.90178L16.4843 6.1631C16.5413 6.48504 16.6851 6.78007 16.9054 7.01602L18.0018 5.99235ZM17.8365 7.51563C18.8512 7.69534 20.6487 7.73848 21.4855 7.74993L21.506 6.25007C20.6385 6.2382 18.9701 6.19305 18.0981 6.03862L17.8365 7.51563ZM16.2501 2.5145C16.2616 3.35132 16.3048 5.14854 16.4843 6.1631L17.9614 5.90178C17.8071 5.02971 17.7619 3.36135 17.7499 2.49387L16.2501 2.5145Z" fill="#141B34"/>
<path d="M12 9C10.8954 9 10 9.67157 10 10.5C10 11.3284 10.8954 12 12 12C13.1046 12 14 12.6716 14 13.5C14 14.3284 13.1046 15 12 15M12 9C12.8708 9 13.6116 9.4174 13.8862 10M12 9V8M12 15C11.1292 15 10.3884 14.5826 10.1138 14M12 15V16" stroke="#141B34" stroke-width="1.5" stroke-linecap="round"/>
</svg>
