<svg width="24" height="24" viewBox="0 0 24 24" fill="none" xmlns="http://www.w3.org/2000/svg">
<path d="M12 22C7.99306 22 5.98959 22 4.7448 20.682C3.5 19.364 3.5 17.2426 3.5 13C3.5 8.75736 3.5 6.63604 4.7448 5.31802C5.98959 4 7.99306 4 12 4C16.0069 4 18.0104 4 19.2552 5.31802C20.5 6.63604 20.5 8.75736 20.5 13C20.5 17.2426 20.5 19.364 19.2552 20.682C18.0104 22 16.0069 22 12 22Z" stroke="#141B34" stroke-width="1.5" stroke-linecap="round" stroke-linejoin="round"/>
<path d="M9.59003 15.2408L9.17263 14.6177H9.17263L9.59003 15.2408ZM14.41 15.2408L14.8274 14.6177L14.41 15.2408ZM8.31674 17.5983L7.76836 18.1099H7.76836L8.31674 17.5983ZM15.6833 17.5983L15.1349 17.0866L15.6833 17.5983ZM10.0074 15.8639C11.2294 15.0454 12.7706 15.0454 13.9926 15.8639L14.8274 14.6177C13.1003 13.4608 10.8997 13.4608 9.17263 14.6177L10.0074 15.8639ZM10.0404 19.25H13.9596V17.75H10.0404V19.25ZM8.86512 17.0866C8.79096 17.0072 8.76468 16.9547 8.75587 16.9321C8.7485 16.9133 8.75009 16.9081 8.75013 16.9077C8.75122 16.8965 8.76635 16.8212 8.89626 16.6781C9.17981 16.3659 9.613 16.1281 10.0074 15.8639L9.17263 14.6177C8.93828 14.7747 8.23275 15.1775 7.78582 15.6697C7.55049 15.9288 7.30244 16.2967 7.25716 16.7626C7.20857 17.2627 7.40655 17.7221 7.76836 18.1099L8.86512 17.0866ZM13.9926 15.8639C14.387 16.1281 14.8202 16.3659 15.1037 16.6781C15.2336 16.8212 15.2488 16.8965 15.2499 16.9077C15.2499 16.9081 15.2515 16.9133 15.2441 16.9321C15.2353 16.9547 15.209 17.0072 15.1349 17.0866L16.2316 18.1099C16.5934 17.7221 16.7914 17.2627 16.7428 16.7626C16.6976 16.2967 16.4495 15.9288 16.2142 15.6697C15.7672 15.1775 15.0617 14.7747 14.8274 14.6177L13.9926 15.8639ZM15.1349 17.0866C14.701 17.5517 14.34 17.75 13.9596 17.75V19.25C14.9529 19.25 15.6845 18.6963 16.2316 18.1099L15.1349 17.0866ZM7.76836 18.1099C8.31548 18.6963 9.04709 19.25 10.0404 19.25V17.75C9.66001 17.75 9.29902 17.5517 8.86512 17.0866L7.76836 18.1099ZM13.25 9.5C13.25 10.1904 12.6904 10.75 12 10.75V12.25C13.5188 12.25 14.75 11.0188 14.75 9.5H13.25ZM12 10.75C11.3096 10.75 10.75 10.1904 10.75 9.5H9.25C9.25 11.0188 10.4812 12.25 12 12.25V10.75ZM10.75 9.5C10.75 8.80964 11.3096 8.25 12 8.25V6.75C10.4812 6.75 9.25 7.98122 9.25 9.5H10.75ZM12 8.25C12.6904 8.25 13.25 8.80964 13.25 9.5H14.75C14.75 7.98122 13.5188 6.75 12 6.75V8.25Z" fill="#141B34"/>
<path d="M8 4V2" stroke="#141B34" stroke-width="1.5" stroke-linecap="round"/>
<path d="M16 4V2" stroke="#141B34" stroke-width="1.5" stroke-linecap="round"/>
</svg>
