<svg width="24" height="24" viewBox="0 0 24 24" fill="none" xmlns="http://www.w3.org/2000/svg">
<path d="M2 2L22 22" stroke="#141B34" stroke-width="1.5" stroke-linecap="round" stroke-linejoin="round"/>
<path d="M12 21H8C5.64298 21 4.46447 21 3.73223 20.2678C3 19.5355 3 18.357 3 16V8C3 5.64298 3 4.46447 3.73223 3.73223M12 21C14.357 21 15.5355 21 16.2678 20.2678C16.8885 19.647 16.983 18.7056 16.9974 16.9974M12 21H17C18.8856 21 19.8284 21 20.4142 20.4142M21 16.9974V10C21 8.11438 21 7.17157 20.4142 6.58579C19.8284 6 18.8856 6 17 6M17 13.1109V8C17 5.64298 17 4.46447 16.2678 3.73223C15.5355 3 14.357 3 12 3H8C7.59781 3 7.22993 3 6.89273 3.00364" stroke="#141B34" stroke-width="1.5" stroke-linecap="round" stroke-linejoin="round"/>
</svg>
