<svg width="24" height="24" viewBox="0 0 24 24" fill="none" xmlns="http://www.w3.org/2000/svg">
<path d="M6.5 9H5.5M10.5 9H9.5M6.5 6H5.5M10.5 6H9.5" stroke="#141B34" stroke-width="1.5" stroke-linecap="round"/>
<path d="M18.5 15H17.5M18.5 11H17.5" stroke="#141B34" stroke-width="1.5" stroke-linecap="round"/>
<path d="M14 8V22H18C19.8856 22 20.8284 22 21.4142 21.4142C22 20.8284 22 19.8856 22 18V12C22 10.1144 22 9.17157 21.4142 8.58579C20.8284 8 19.8856 8 18 8H14ZM14 8C14 5.17157 14 3.75736 13.1213 2.87868C12.2426 2 10.8284 2 8 2C5.17157 2 3.75736 2 2.87868 2.87868C2 3.75736 2 5.17157 2 8V10" stroke="#141B34" stroke-width="1.5" stroke-linecap="round" stroke-linejoin="round"/>
<path d="M3.59003 18.7408L3.17263 18.1177H3.17263L3.59003 18.7408ZM8.40997 18.7408L8.82737 18.1177L8.40997 18.7408ZM2.31674 21.0983L1.76836 21.6099H1.76836L2.31674 21.0983ZM9.68326 21.0983L9.13488 20.5866L9.68326 21.0983ZM4.00744 19.3639C5.22938 18.5454 6.77062 18.5454 7.99256 19.3639L8.82737 18.1177C7.10032 16.9608 4.89968 16.9608 3.17263 18.1177L4.00744 19.3639ZM4.04039 22.75H7.95961V21.25H4.04039V22.75ZM2.86512 20.5866C2.79096 20.5072 2.76468 20.4547 2.75587 20.4321C2.7485 20.4133 2.75009 20.4081 2.75013 20.4077C2.75122 20.3965 2.76635 20.3212 2.89626 20.1781C3.17981 19.8659 3.613 19.6281 4.00744 19.3639L3.17263 18.1177C2.93828 18.2747 2.23275 18.6775 1.78582 19.1697C1.55049 19.4288 1.30244 19.7967 1.25716 20.2626C1.20857 20.7627 1.40655 21.2221 1.76836 21.6099L2.86512 20.5866ZM7.99256 19.3639C8.387 19.6281 8.82019 19.8659 9.10374 20.1781C9.23365 20.3212 9.24878 20.3965 9.24987 20.4077C9.24991 20.4081 9.2515 20.4133 9.24413 20.4321C9.23532 20.4547 9.20904 20.5072 9.13488 20.5866L10.2316 21.6099C10.5934 21.2221 10.7914 20.7627 10.7428 20.2626C10.6976 19.7967 10.4495 19.4288 10.2142 19.1697C9.76725 18.6775 9.06172 18.2747 8.82737 18.1177L7.99256 19.3639ZM9.13488 20.5866C8.70098 21.0517 8.33998 21.25 7.95961 21.25V22.75C8.95291 22.75 9.68452 22.1963 10.2316 21.6099L9.13488 20.5866ZM1.76836 21.6099C2.31548 22.1963 3.04709 22.75 4.04039 22.75V21.25C3.66001 21.25 3.29902 21.0517 2.86512 20.5866L1.76836 21.6099ZM7.25 14C7.25 14.6904 6.69036 15.25 6 15.25V16.75C7.51878 16.75 8.75 15.5188 8.75 14H7.25ZM6 15.25C5.30964 15.25 4.75 14.6904 4.75 14H3.25C3.25 15.5188 4.48122 16.75 6 16.75V15.25ZM4.75 14C4.75 13.3096 5.30964 12.75 6 12.75V11.25C4.48122 11.25 3.25 12.4812 3.25 14H4.75ZM6 12.75C6.69036 12.75 7.25 13.3096 7.25 14H8.75C8.75 12.4812 7.51878 11.25 6 11.25V12.75Z" fill="#141B34"/>
</svg>
