<svg width="24" height="24" viewBox="0 0 24 24" fill="none" xmlns="http://www.w3.org/2000/svg">
<path d="M22 12C22 17.5228 17.5228 22 12 22C6.47715 22 2 17.5228 2 12C2 6.47715 6.47715 2 12 2C17.5228 2 22 6.47715 22 12Z" stroke="#141B34" stroke-width="1.5"/>
<path d="M12.2838 13.2806C12.4387 12.8964 12.2529 12.4594 11.8688 12.3045C11.4847 12.1495 11.0476 12.3353 10.8927 12.7194L12.2838 13.2806ZM8.94118 16.5L8.60801 15.8281C8.29596 15.9828 8.1315 16.332 8.21095 16.6711C8.29041 17.0102 8.59288 17.25 8.94118 17.25V16.5ZM14.5294 16.5V15.75V16.5ZM16.5281 16.4492C16.8222 16.1575 16.8242 15.6827 16.5325 15.3886C16.2409 15.0944 15.766 15.0925 15.4719 15.3841L16.5281 16.4492ZM13.5 13.75C13.9142 13.75 14.25 13.4142 14.25 13C14.25 12.5858 13.9142 12.25 13.5 12.25V13.75ZM8.5 12.25C8.08579 12.25 7.75 12.5858 7.75 13C7.75 13.4142 8.08579 13.75 8.5 13.75V12.25ZM12.4706 13.75C12.8848 13.75 13.2206 13.4142 13.2206 13C13.2206 12.5858 12.8848 12.25 12.4706 12.25V13.75ZM14.3088 10.25C14.3088 10.6642 14.6446 11 15.0588 11C15.473 11 15.8088 10.6642 15.8088 10.25H14.3088ZM10.8927 12.7194C10.6131 13.4126 10.2714 14.0853 9.87428 14.6432C9.47373 15.2059 9.04584 15.611 8.60801 15.8281L9.27435 17.1719C10.013 16.8057 10.6145 16.1899 11.0963 15.5131C11.5816 14.8313 11.9751 14.0457 12.2838 13.2806L10.8927 12.7194ZM8.94118 17.25H14.5294V15.75H8.94118V17.25ZM14.5294 16.5C14.5294 17.25 14.5297 17.25 14.5299 17.25C14.53 17.25 14.5302 17.25 14.5304 17.25C14.5308 17.25 14.5311 17.25 14.5315 17.25C14.5323 17.25 14.5331 17.25 14.534 17.25C14.5357 17.25 14.5377 17.25 14.5399 17.2499C14.5443 17.2499 14.5495 17.2498 14.5556 17.2497C14.5678 17.2494 14.5835 17.2489 14.6022 17.2481C14.6397 17.2464 14.6899 17.2432 14.7505 17.2372C14.8708 17.2253 15.0359 17.2018 15.2246 17.155C15.5931 17.0637 16.1033 16.8705 16.5281 16.4492L15.4719 15.3841C15.3085 15.5462 15.0834 15.6446 14.8636 15.6991C14.7582 15.7253 14.666 15.7382 14.6025 15.7445C14.5711 15.7477 14.5478 15.749 14.5347 15.7496C14.5282 15.7499 14.5243 15.75 14.5233 15.75C14.5228 15.75 14.523 15.75 14.524 15.75C14.5246 15.75 14.5252 15.75 14.5261 15.75C14.5266 15.75 14.5271 15.75 14.5276 15.75C14.5279 15.75 14.5282 15.75 14.5285 15.75C14.5286 15.75 14.5289 15.75 14.5289 15.75C14.5292 15.75 14.5294 15.75 14.5294 16.5ZM13.5 12.25H8.5V13.75H13.5V12.25ZM12.4706 12.25C11.4975 12.25 10.6324 11.3981 10.6324 10.25H9.13235C9.13235 12.1395 10.5847 13.75 12.4706 13.75V12.25ZM10.6324 10.25C10.6324 9.10195 11.4975 8.25 12.4706 8.25V6.75C10.5847 6.75 9.13235 8.36049 9.13235 10.25H10.6324ZM12.4706 8.25C13.4436 8.25 14.3088 9.10195 14.3088 10.25H15.8088C15.8088 8.36049 14.3564 6.75 12.4706 6.75V8.25Z" fill="#141B34"/>
</svg>
