<svg width="24" height="24" viewBox="0 0 24 24" fill="none" xmlns="http://www.w3.org/2000/svg">
<path d="M7.19975 14.0477C7.34881 13.6612 7.15637 13.2271 6.7699 13.078C6.38344 12.929 5.94931 13.1214 5.80025 13.5079L7.19975 14.0477ZM2 20L1.65476 19.3342C1.3478 19.4934 1.18944 19.8417 1.27135 20.1777C1.35326 20.5136 1.65423 20.75 2 20.75L2 20ZM11.5 20V19.25V20ZM14.5399 19.4836C14.8274 19.1854 14.8188 18.7106 14.5206 18.4231C14.2224 18.1356 13.7476 18.1442 13.4601 18.4424L14.5399 19.4836ZM9.56923 14.5278C9.98344 14.5278 10.3192 14.192 10.3192 13.7778C10.3192 13.3636 9.98344 13.0278 9.56923 13.0278V14.5278ZM2 13.0278C1.58579 13.0278 1.25 13.3636 1.25 13.7778C1.25 14.192 1.58579 14.5278 2 14.5278V13.0278ZM8 14.5278C8.41421 14.5278 8.75 14.192 8.75 13.7778C8.75 13.3636 8.41421 13.0278 8 13.0278V14.5278ZM11.65 8.88889C11.65 9.3031 11.9858 9.63889 12.4 9.63889C12.8142 9.63889 13.15 9.3031 13.15 8.88889H11.65ZM5.80025 13.5079C5.31368 14.7693 4.71304 16.01 4.005 17.0502C3.29288 18.0964 2.50293 18.8944 1.65476 19.3342L2.34524 20.6658C3.49707 20.0686 4.45712 19.0517 5.245 17.8942C6.03696 16.7308 6.68632 15.3788 7.19975 14.0477L5.80025 13.5079ZM2 20.75H11.5V19.25H2V20.75ZM11.5 20C11.5 20.75 11.5003 20.75 11.5005 20.75C11.5006 20.75 11.5009 20.75 11.5011 20.75C11.5015 20.75 11.5019 20.75 11.5023 20.75C11.5032 20.75 11.5041 20.75 11.5052 20.75C11.5073 20.75 11.5098 20.75 11.5126 20.7499C11.5183 20.7499 11.5254 20.7497 11.534 20.7496C11.5511 20.7492 11.5738 20.7485 11.6017 20.7471C11.6574 20.7445 11.734 20.7395 11.8274 20.7298C12.0133 20.7105 12.27 20.6724 12.5632 20.5964C13.1421 20.4463 13.9108 20.1359 14.5399 19.4836L13.4601 18.4424C13.0892 18.8271 12.6079 19.0352 12.1868 19.1444C11.98 19.198 11.7992 19.2247 11.6726 19.2378C11.6097 19.2443 11.5613 19.2474 11.5311 19.2488C11.516 19.2495 11.5055 19.2498 11.5002 19.2499C11.4975 19.25 11.4961 19.25 11.4961 19.25C11.496 19.25 11.4963 19.25 11.497 19.25C11.4973 19.25 11.4977 19.25 11.4982 19.25C11.4985 19.25 11.4988 19.25 11.4991 19.25C11.4992 19.25 11.4994 19.25 11.4995 19.25C11.4998 19.25 11.5 19.25 11.5 20ZM9.56923 13.0278H2V14.5278H9.56923V13.0278ZM8 13.0278C6.05654 13.0278 4.35 11.251 4.35 8.88889H2.85C2.85 11.9269 5.08336 14.5278 8 14.5278V13.0278ZM4.35 8.88889C4.35 6.52676 6.05654 4.75 8 4.75V3.25C5.08336 3.25 2.85 5.8509 2.85 8.88889H4.35ZM8 4.75C9.94346 4.75 11.65 6.52676 11.65 8.88889H13.15C13.15 5.8509 10.9166 3.25 8 3.25V4.75Z" fill="#141B34"/>
<path d="M14.5 13H22M14.5 13C14.5 13.7002 16.4943 15.0085 17 15.5M14.5 13C14.5 12.2998 16.4943 10.9915 17 10.5" stroke="#141B34" stroke-width="1.5" stroke-linecap="round" stroke-linejoin="round"/>
</svg>
