<svg width="24" height="24" viewBox="0 0 24 24" fill="none" xmlns="http://www.w3.org/2000/svg">
<path d="M12 22C16.9706 22 21 19.0899 21 15.5C21 11.9101 16.9706 9 12 9C7.02944 9 3 11.9101 3 15.5C3 19.0899 7.02944 22 12 22Z" stroke="#141B34" stroke-width="1.5"/>
<path d="M15.5 16.7803C14.5149 17.548 13.3062 18.0002 12 18.0002C10.6938 18.0002 9.48512 17.548 8.5 16.7803" stroke="#141B34" stroke-width="1.5" stroke-linecap="round"/>
<path d="M19 6C20.1046 6 21 5.10457 21 4C21 2.89543 20.1046 2 19 2C17.8954 2 17 2.89543 17 4C17 5.10457 17.8954 6 19 6Z" stroke="#141B34" stroke-width="1.5"/>
<path d="M18 10.0694C18.3687 9.43053 19.0634 9 19.8595 9C21.0417 9 22 9.94921 22 11.1201C22 11.937 21.5336 12.6459 20.8502 13" stroke="#141B34" stroke-width="1.5" stroke-linecap="round"/>
<path d="M6 10.0694C5.63125 9.43053 4.93663 9 4.14048 9C2.95833 9 2 9.94921 2 11.1201C2 11.937 2.4664 12.6459 3.14981 13" stroke="#141B34" stroke-width="1.5" stroke-linecap="round"/>
<path d="M17 4C14.643 4 13.4645 4 12.7322 4.73223C12 5.46447 12 6.64298 12 9" stroke="#141B34" stroke-width="1.5" stroke-linecap="round" stroke-linejoin="round"/>
<path d="M9.00801 13H8.99902" stroke="#141B34" stroke-width="2" stroke-linecap="round" stroke-linejoin="round"/>
<path d="M15.008 13H14.999" stroke="#141B34" stroke-width="2" stroke-linecap="round" stroke-linejoin="round"/>
</svg>
