<svg width="24" height="24" viewBox="0 0 24 24" fill="none" xmlns="http://www.w3.org/2000/svg">
<path d="M17.5 17.5L22 22" stroke="#141B34" stroke-width="1.5" stroke-linecap="round" stroke-linejoin="round"/>
<path d="M20 11C20 6.02944 15.9706 2 11 2C6.02944 2 2 6.02944 2 11C2 15.9706 6.02944 20 11 20C15.9706 20 20 15.9706 20 11Z" stroke="#141B34" stroke-width="1.5" stroke-linejoin="round"/>
<path d="M12.5417 9.31501C12.5417 9.72922 12.8775 10.065 13.2917 10.065C13.7059 10.065 14.0417 9.72922 14.0417 9.31501H12.5417ZM9.25 12.6854C9.25 12.2712 8.91421 11.9354 8.5 11.9354C8.08579 11.9354 7.75 12.2712 7.75 12.6854H9.25ZM11.75 6.5C11.75 6.08579 11.4142 5.75 11 5.75C10.5858 5.75 10.25 6.08579 10.25 6.5L11.75 6.5ZM10.25 15.5C10.25 15.9142 10.5858 16.25 11 16.25C11.4142 16.25 11.75 15.9142 11.75 15.5H10.25ZM11 10.1206C10.2216 10.1206 9.84159 9.98595 9.6686 9.86087C9.54945 9.77472 9.45833 9.64522 9.45833 9.31501H7.95833C7.95833 9.98709 8.17972 10.6354 8.78973 11.0764C9.34591 11.4786 10.1118 11.6206 11 11.6206V10.1206ZM9.45833 9.31501C9.45833 8.88061 9.976 8.2502 11 8.2502V6.7502C9.4927 6.7502 7.95833 7.74482 7.95833 9.31501H9.45833ZM11 8.2502C12.024 8.2502 12.5417 8.88061 12.5417 9.31501H14.0417C14.0417 7.74482 12.5073 6.7502 11 6.7502V8.2502ZM12.75 12.6854C12.75 13.0763 12.6016 13.2936 12.3614 13.4485C12.0773 13.6317 11.6151 13.7502 11 13.7502V15.2502C11.7656 15.2502 12.5534 15.1095 13.1742 14.7093C13.8387 14.2808 14.25 13.5908 14.25 12.6854H12.75ZM11 13.7502C10.4506 13.7502 9.98383 13.5875 9.67283 13.3617C9.36103 13.1354 9.25 12.8868 9.25 12.6854H7.75C7.75 13.4862 8.19862 14.1451 8.79164 14.5756C9.38546 15.0067 10.1687 15.2502 11 15.2502V13.7502ZM11 11.6206C11.7851 11.6206 12.2195 11.7485 12.4449 11.9063C12.612 12.0232 12.75 12.2152 12.75 12.6854H14.25C14.25 11.8593 13.9714 11.1438 13.3051 10.6774C12.6971 10.2519 11.8816 10.1206 11 10.1206V11.6206ZM11.75 7.5002L11.75 6.5L10.25 6.5L10.25 7.50019L11.75 7.5002ZM10.25 14.5002V15.5H11.75V14.5002H10.25Z" fill="#141B34"/>
</svg>
