<svg width="24" height="24" viewBox="0 0 24 24" fill="none" xmlns="http://www.w3.org/2000/svg">
<path d="M2.5 12C2.5 7.52166 2.5 5.28249 3.89124 3.89124C5.28249 2.5 7.52166 2.5 12 2.5C16.4783 2.5 18.7175 2.5 20.1088 3.89124C21.5 5.28249 21.5 7.52166 21.5 12C21.5 16.4783 21.5 18.7175 20.1088 20.1088C18.7175 21.5 16.4783 21.5 12 21.5C7.52166 21.5 5.28249 21.5 3.89124 20.1088C2.5 18.7175 2.5 16.4783 2.5 12Z" stroke="#141B34" stroke-width="1.5"/>
<path d="M12.4673 15.1064C13.2386 15.7669 14.3312 17.1019 14.7847 16.9658M14.7847 16.9658C15.3129 16.9658 16.3201 15.6564 17.0585 15.1064M14.7847 16.9658C14.6309 14.5752 15.1038 11.4942 14.0961 10.2391C12.978 8.91786 9.79846 9.39989 6.98421 9.26744M6.98421 9.26744C6.92512 9.93414 8.22596 10.795 8.89942 11.5529M6.98421 9.26744C6.86113 8.82459 8.25443 7.69203 8.89654 7.02808" stroke="#141B34" stroke-width="1.5" stroke-linecap="round" stroke-linejoin="round"/>
</svg>
