<svg width="24" height="24" viewBox="0 0 24 24" fill="none" xmlns="http://www.w3.org/2000/svg">
<path d="M2.5 12C2.5 7.52166 2.5 5.28249 3.89124 3.89124C5.28249 2.5 7.52166 2.5 12 2.5C16.4783 2.5 18.7175 2.5 20.1088 3.89124C21.5 5.28249 21.5 7.52166 21.5 12C21.5 16.4783 21.5 18.7175 20.1088 20.1088C18.7175 21.5 16.4783 21.5 12 21.5C7.52166 21.5 5.28249 21.5 3.89124 20.1088C2.5 18.7175 2.5 16.4783 2.5 12Z" stroke="#141B34" stroke-width="1.5"/>
<path d="M11.5521 15.1046C10.7809 15.7652 9.68825 17.1002 9.23479 16.9641M9.23479 16.9641C8.70663 16.9641 7.69941 15.6547 6.96094 15.1047M9.23479 16.9641C9.38854 14.5735 8.91572 11.4925 9.92335 10.2373C11.0415 8.91616 14.221 9.39818 17.0353 9.26573M17.0353 9.26573C17.0944 9.93243 15.7935 10.7933 15.1201 11.5512M17.0353 9.26573C17.1584 8.82288 15.7651 7.69032 15.1229 7.02637" stroke="#141B34" stroke-width="1.5" stroke-linecap="round" stroke-linejoin="round"/>
</svg>
