<svg width="24" height="24" viewBox="0 0 24 24" fill="none" xmlns="http://www.w3.org/2000/svg">
<path d="M17.6667 21L6.33333 21C6.02334 21 5.86835 21 5.74118 20.9574C5.39609 20.8418 5.12654 20.5049 5.03407 20.0735C5 19.9146 5 19.7208 5 19.3333C5 18.5584 5 18.1709 5.06815 17.853C5.25308 16.9902 5.79218 16.3164 6.48236 16.0852C6.7367 16 7.04669 16 7.66667 16H16.3333C16.9533 16 17.2633 16 17.5176 16.0852C18.2078 16.3164 18.7469 16.9902 18.9319 17.853C19 18.1709 19 18.5584 19 19.3333C19 19.7208 19 19.9146 18.9659 20.0735C18.8735 20.5049 18.6039 20.8418 18.2588 20.9574C18.1317 21 17.9767 21 17.6667 21Z" stroke="#141B34" stroke-width="1.5" stroke-miterlimit="10" stroke-linecap="round" stroke-linejoin="round"/>
<path d="M13.7558 16.0933C13.8073 16.5043 14.1823 16.7957 14.5933 16.7442C15.0043 16.6927 15.2957 16.3177 15.2442 15.9067L13.7558 16.0933ZM8.75582 15.9067C8.70431 16.3177 8.99572 16.6927 9.40672 16.7442C9.81772 16.7957 10.1927 16.5043 10.2442 16.0933L8.75582 15.9067ZM14.0338 12.2807L13.2874 12.3542C13.288 12.3608 13.2888 12.3674 13.2896 12.374L14.0338 12.2807ZM15.1085 9.6194L14.5224 9.15144L15.1085 9.6194ZM9.96621 12.2807L10.7104 12.3739C10.7112 12.3674 10.712 12.3608 10.7126 12.3542L9.96621 12.2807ZM8.89147 9.6194L9.47758 9.15144H9.47758L8.89147 9.6194ZM8.75 7.0625C8.75 5.22205 10.216 3.75 12 3.75V2.25C9.36573 2.25 7.25 4.41563 7.25 7.0625H8.75ZM12 3.75C13.784 3.75 15.25 5.22205 15.25 7.0625H16.75C16.75 4.41563 14.6343 2.25 12 2.25V3.75ZM15.2442 15.9067L14.778 12.1874L13.2896 12.374L13.7558 16.0933L15.2442 15.9067ZM15.25 7.0625C15.25 7.85642 14.9769 8.58218 14.5224 9.15144L15.6946 10.0874C16.355 9.26019 16.75 8.20649 16.75 7.0625H15.25ZM10.2442 16.0933L10.7104 12.3739L9.22203 12.1874L8.75582 15.9067L10.2442 16.0933ZM9.47758 9.15144C9.02307 8.58218 8.75 7.85642 8.75 7.0625H7.25C7.25 8.20649 7.64495 9.26019 8.30537 10.0874L9.47758 9.15144ZM10.7126 12.3542C10.841 11.0502 10.1019 9.93339 9.47758 9.15144L8.30537 10.0874C8.90841 10.8427 9.28533 11.5419 9.21982 12.2072L10.7126 12.3542ZM14.7802 12.2072C14.7147 11.5419 15.0916 10.8427 15.6946 10.0874L14.5224 9.15144C13.8981 9.93339 13.159 11.0502 13.2874 12.3542L14.7802 12.2072Z" fill="#141B34"/>
<path d="M14 13H10" stroke="#141B34" stroke-width="1.5" stroke-linecap="round"/>
</svg>
