<svg width="24" height="24" viewBox="0 0 24 24" fill="none" xmlns="http://www.w3.org/2000/svg">
<path d="M15 7.5C15 7.5 15.5 7.5 16 8.5C16 8.5 17.5882 6 19 5.5" stroke="#141B34" stroke-width="1.5" stroke-linecap="round" stroke-linejoin="round"/>
<path d="M19.023 15.042L19.0517 19.5927C19.0025 20.9362 17.8955 22 16.5468 22H5.42049C4.03615 22 2.91392 20.8814 2.91392 19.5014L3.00008 13.0355M9.00869 6.0129L5.17528 5.94884C4.28564 5.92732 3.48819 6.49283 3.21686 7.33765L2.11972 10.7538C1.98992 11.1579 1.98096 11.5994 2.19646 11.9654C2.98201 13.2993 5.09114 15.1192 8.44492 13.163M7.47356 11.3322C7.86365 12.6005 9.39296 14.8259 12.5137 13.5372" stroke="#141B34" stroke-width="1.5" stroke-linecap="round" stroke-linejoin="round"/>
<path d="M22.03 7.01618C22.03 9.78653 19.7882 12.0324 17.0228 12.0324C14.2574 12.0324 12.0156 9.78653 12.0156 7.01618C12.0156 4.24582 14.2574 2 17.0228 2C19.7882 2 22.03 4.24582 22.03 7.01618Z" stroke="#141B34" stroke-width="1.5" stroke-linecap="round"/>
</svg>
