<svg width="24" height="24" viewBox="0 0 24 24" fill="none" xmlns="http://www.w3.org/2000/svg">
<path d="M3.47022 4C3.35691 4.08553 3.24988 4.17937 3.14831 4.28231C2 5.44617 2 7.31938 2 11.0658V13.0526C2 16.7991 2 18.6723 3.14831 19.8361C4.29663 21 6.14481 21 9.84118 21H15.7221C17.8139 21 19.1166 21 20 20.625" stroke="#141B34" stroke-width="1.5" stroke-linecap="round"/>
<path d="M18.865 14.5C18.9518 14.2848 18.9998 14.0483 18.9998 13.8C18.9998 12.8059 18.2303 12 17.281 12C16.9998 12 16.7343 12.0707 16.5 12.1961" stroke="#141B34" stroke-width="1.5" stroke-linecap="round"/>
<path d="M17.9998 7C17.9998 6.07003 17.9998 5.60504 17.8976 5.22354C17.6202 4.18827 16.8115 3.37962 15.7763 3.10222C15.3948 3 14.9298 3 13.9998 3H9.9998C9.05412 3 8.22701 3 7.5 3.01847M11.2424 7H15.9998C18.8282 7 20.2424 7 21.1211 7.87868C21.9998 8.75736 21.9998 10.1716 21.9998 13V15C21.9998 15.9959 21.9998 16.8164 21.9614 17.5" stroke="#141B34" stroke-width="1.5" stroke-linecap="round"/>
<path d="M2 2L22 22" stroke="#141B34" stroke-width="1.5" stroke-linecap="round"/>
</svg>
